<svg width="142" height="32" viewBox="0 0 142 32" fill="none" xmlns="http://www.w3.org/2000/svg">
    <g clip-path="url(#clip0_1297_26414)">
        <path fill-rule="evenodd" clip-rule="evenodd" d="M95.4193 27.1577V18.3186L91.8858 27.2326C91.871 27.2699 91.8349 27.2945 91.7947 27.2945H91.056C91.0158 27.2945 90.9797 27.2702 90.9649 27.2329L87.4137 18.3186V27.1577C87.4137 27.2332 87.3525 27.2945 87.277 27.2945H85.51C85.4343 27.2945 85.3731 27.2332 85.3731 27.1577V15.8063C85.3731 15.7307 85.4343 15.6694 85.51 15.6694H88.0637C88.177 15.6694 88.2784 15.7385 88.3204 15.8436L91.4255 23.8208L94.5131 15.8439C94.5545 15.7385 94.6566 15.6694 94.7702 15.6694H97.3232C97.3987 15.6694 97.4599 15.7307 97.4599 15.8063V27.1577C97.4599 27.2332 97.3987 27.2945 97.3232 27.2945H95.5562C95.4805 27.2945 95.4193 27.2332 95.4193 27.1577ZM121.742 21.4418C121.742 17.8519 124.316 15.4291 127.63 15.4291C129.788 15.4291 131.175 16.5307 132.013 17.8481C132.074 17.9453 132.039 18.0709 131.938 18.1257L130.615 18.8463C130.528 18.8934 130.418 18.8614 130.365 18.7775C129.801 17.8816 128.76 17.2419 127.63 17.2419C125.409 17.2419 123.761 18.9847 123.761 21.4418C123.761 23.8649 125.409 25.6427 127.63 25.6427C128.761 25.6427 129.802 24.9861 130.366 24.1023C130.418 24.0211 130.527 23.9882 130.613 24.0329L131.947 24.7242C132.052 24.779 132.088 24.9064 132.023 25.006C131.157 26.3242 129.786 27.4554 127.63 27.4554C124.316 27.4554 121.742 25.0154 121.742 21.4418ZM134.029 27.0895V15.8745C134.029 15.7613 134.121 15.6694 134.234 15.6694H141.795C141.908 15.6694 142 15.7613 142 15.8745V17.2593C142 17.3725 141.908 17.4644 141.795 17.4644H136.275C136.162 17.4644 136.07 17.5562 136.07 17.6694V20.2569C136.07 20.3704 136.162 20.4623 136.275 20.4623H141.673C141.786 20.4623 141.878 20.5541 141.878 20.6673V22.0522C141.878 22.1654 141.786 22.2572 141.673 22.2572H136.275C136.162 22.2572 136.07 22.3491 136.07 22.4623V25.2946C136.07 25.4077 136.162 25.4996 136.275 25.4996H141.795C141.908 25.4996 142 25.5914 142 25.7046V27.0895C142 27.2027 141.908 27.2945 141.795 27.2945H134.234C134.121 27.2945 134.029 27.2027 134.029 27.0895ZM118.155 19.2946C118.155 18.1793 117.317 17.4644 116.167 17.4644H113.567C113.452 17.4644 113.359 17.5577 113.359 17.6727V20.9512C113.359 21.0661 113.452 21.1595 113.567 21.1595H116.167C117.317 21.1595 118.155 20.4273 118.155 19.2946ZM117.903 27.1923L115.46 23.0569C115.422 22.9932 115.354 22.9544 115.28 22.9544H113.567C113.452 22.9544 113.359 23.0477 113.359 23.1627V27.0862C113.359 27.2012 113.265 27.2945 113.15 27.2945H111.526C111.411 27.2945 111.318 27.2012 111.318 27.0862V15.8777C111.318 15.7627 111.411 15.6694 111.526 15.6694H116.428C118.73 15.6694 120.248 17.1506 120.248 19.3121C120.248 21.2255 119.07 22.3396 117.768 22.6676C117.627 22.7032 117.555 22.8563 117.632 22.9793C118.119 23.7565 119.597 26.1171 120.136 26.9769C120.223 27.1156 120.123 27.2945 119.959 27.2945H118.082C118.008 27.2945 117.94 27.2557 117.903 27.1923ZM100.447 27.0842V15.8798C100.447 15.7633 100.541 15.6694 100.657 15.6694H108.207C108.323 15.6694 108.418 15.7633 108.418 15.8798V17.254C108.418 17.3701 108.323 17.4644 108.207 17.4644H102.698C102.582 17.4644 102.488 17.5586 102.488 17.6747V20.2519C102.488 20.3681 102.582 20.4623 102.698 20.4623H108.085C108.202 20.4623 108.296 20.5565 108.296 20.6724V22.0469C108.296 22.1633 108.202 22.2572 108.085 22.2572H102.698C102.582 22.2572 102.488 22.3515 102.488 22.4676V25.2892C102.488 25.4054 102.582 25.4996 102.698 25.4996H108.207C108.323 25.4996 108.418 25.5938 108.418 25.7097V27.0842C108.418 27.2006 108.323 27.2945 108.207 27.2945H100.657C100.541 27.2945 100.447 27.2006 100.447 27.0842ZM80.3519 27.1577V18.3186L76.8184 27.2326C76.8036 27.2699 76.7676 27.2945 76.7273 27.2945H75.9886C75.9487 27.2945 75.9126 27.2702 75.8978 27.2329L72.3466 18.3186V27.1577C72.3466 27.2332 72.2854 27.2945 72.2096 27.2945H70.4426C70.3672 27.2945 70.3057 27.2332 70.3057 27.1577V15.8063C70.3057 15.7307 70.3672 15.6694 70.4426 15.6694H72.9963C73.1096 15.6694 73.2113 15.7385 73.2531 15.8436L76.3581 23.8208L79.4457 15.8439C79.4874 15.7385 79.5892 15.6694 79.7028 15.6694H82.2559C82.3316 15.6694 82.3928 15.7307 82.3928 15.8063V27.1577C82.3928 27.2332 82.3316 27.2945 82.2559 27.2945H80.4888C80.4134 27.2945 80.3519 27.2332 80.3519 27.1577ZM66.2646 21.4904C66.2646 19.0854 64.7993 17.2901 62.543 17.2901C60.2695 17.2901 58.8211 19.0854 58.8211 21.4904C58.8211 23.8786 60.2695 25.691 62.543 25.691C64.7993 25.691 66.2646 23.8786 66.2646 21.4904ZM56.8003 21.4904C56.8003 18.5983 58.4516 16.3485 60.9529 15.6807C65.1804 14.5524 69.0599 18.5106 68.1408 22.9277C67.576 25.6397 65.4111 27.5037 62.543 27.5037C59.1749 27.5037 56.8003 24.9591 56.8003 21.4904ZM45.3844 21.4904C45.3844 17.9002 47.9581 15.4774 51.2726 15.4774C53.4307 15.4774 54.8179 16.5793 55.6557 17.8967C55.7172 17.9936 55.682 18.1192 55.5809 18.174L54.257 18.8946C54.1703 18.9417 54.0606 18.9097 54.0079 18.8258C53.4432 17.9298 52.403 17.2901 51.2726 17.2901C49.0521 17.2901 47.4031 19.033 47.4031 21.4904C47.4031 23.9132 49.0521 25.691 51.2726 25.691C52.4039 25.691 53.4446 25.0347 54.0088 24.1509C54.0609 24.0694 54.1694 24.0365 54.2552 24.0812L55.5894 24.7725C55.695 24.8273 55.7311 24.9547 55.6658 25.0543C54.7999 26.3725 53.4284 27.5037 51.2726 27.5037C47.9581 27.5037 45.3844 25.0637 45.3844 21.4904ZM42.0125 19.0946L43.5727 18.2416V20.8724H38.7003C38.5645 20.8724 38.4545 20.9823 38.4545 21.1177V22.7879C38.4545 22.9236 38.5645 23.0335 38.7003 23.0335H41.34C41.4418 23.0335 41.5243 23.1159 41.5243 23.2178V24.3372C41.5243 24.3947 41.5019 24.4495 41.4581 24.4866C40.9676 24.9037 40.0484 25.3171 39.0654 25.3171C36.9374 25.3171 35.4027 23.6963 35.4027 21.4996C35.4027 19.3041 36.9374 17.6827 39.0654 17.6827C40.1969 17.6827 41.1338 18.2815 41.695 19.0214C41.7678 19.1168 41.9071 19.1518 42.0125 19.0946ZM18.5029 24.8951V22.7058C18.5029 22.5787 18.6058 22.4759 18.733 22.4759H21.7121C22.6715 22.4759 23.1945 23.0688 23.1945 23.8003C23.1945 24.6371 22.6363 25.1251 21.7121 25.1251H18.733C18.6011 25.1251 18.5029 25.022 18.5029 24.8951ZM18.5029 20.0673V17.9749C18.5029 17.91 18.5558 17.8573 18.6206 17.8573H21.6074C22.4446 17.8573 22.9679 18.3624 22.9679 19.0774C22.9679 19.8264 22.4446 20.2972 21.6074 20.2972H18.733C18.6058 20.2972 18.5029 20.1944 18.5029 20.0673ZM30.569 27.0931C30.569 27.2095 30.4744 27.304 30.3578 27.304H28.3032C28.1867 27.304 28.0923 27.2095 28.0923 27.0931V15.8896C28.0923 15.7731 28.1867 15.6786 28.3032 15.6786H30.3578C30.4744 15.6786 30.569 15.7731 30.569 15.8896V27.0931ZM39.0654 15.4869C41.2261 15.4869 42.6689 16.4706 43.5727 17.6679V0.412898C43.5727 0.0757144 43.1896 -0.118951 42.9171 0.0801588L21.5822 15.6786H22.1478C24.3633 15.6786 25.4967 17.0901 25.4967 18.6413C25.4967 19.846 24.868 20.7364 24.0234 21.1313C23.8811 21.198 23.8867 21.3992 24.0317 21.459C25.0165 21.8638 25.7236 22.9183 25.7236 24.1491C25.7236 25.9097 24.5725 27.304 22.3401 27.304H16.2563C16.1294 27.304 16.0262 27.2009 16.0262 27.0741V19.7393L0.146416 31.3455C-0.130188 31.571 0.00974095 32 0.360303 32H43.2106C43.4106 32 43.5727 31.8379 43.5727 31.6376V25.7657C42.4275 26.8391 40.9191 27.5132 39.0654 27.5132C35.6467 27.5132 32.8561 25.1603 32.8561 21.4996C32.8561 17.8223 35.6467 15.4869 39.0654 15.4869Z" fill="#121118"/>
    </g>
    <defs>
        <clipPath id="clip0_1297_26414">
            <rect width="142" height="32" fill="white"/>
        </clipPath>
    </defs>
</svg>
