<svg width="239" height="32" viewBox="0 0 239 32" fill="none" xmlns="http://www.w3.org/2000/svg">
    <g clip-path="url(#clip0_1991_11233)">
        <path d="M32 0H0V32H32V0Z" fill="#005BBB"/>
        <path d="M32 16H0V32H32V16Z" fill="#FFD500"/>
        <path fill-rule="evenodd" clip-rule="evenodd" d="M15.9999 26.5595C21.8321 26.5595 26.5599 21.8316 26.5599 15.9995C26.5599 10.1673 21.8321 5.43945 15.9999 5.43945C10.1678 5.43945 5.43994 10.1673 5.43994 15.9995C5.43994 21.8316 10.1678 26.5595 15.9999 26.5595ZM10.506 18.0697L9.64895 17.2126C8.11967 15.6833 8.11967 13.2038 9.64895 11.6745C11.1782 10.1453 13.6577 10.1453 15.187 11.6745L16.0441 12.5316L16.9011 11.6745C18.4303 10.1453 20.9099 10.1453 22.4391 11.6745C23.9684 13.2038 23.9684 15.6833 22.4391 17.2126L21.582 18.0697L16.0441 23.6076L10.506 18.0697Z" fill="white"/>
    </g>
    <path d="M47.36 21.66C45.648 21.66 44.032 21.068 42.688 19.868L43.872 18.46C44.944 19.388 46.032 19.916 47.408 19.916C48.624 19.916 49.392 19.34 49.392 18.508V18.476C49.392 17.676 48.944 17.244 46.864 16.764C44.48 16.188 43.136 15.484 43.136 13.42V13.388C43.136 11.468 44.736 10.14 46.96 10.14C48.592 10.14 49.888 10.636 51.024 11.548L49.968 13.036C48.96 12.284 47.952 11.884 46.928 11.884C45.776 11.884 45.104 12.476 45.104 13.212V13.244C45.104 14.108 45.616 14.492 47.776 15.004C50.144 15.58 51.36 16.428 51.36 18.284V18.316C51.36 20.412 49.712 21.66 47.36 21.66ZM56.3624 21.676C54.4584 21.676 53.3544 20.396 53.3544 18.428V13.052H55.2904V17.852C55.2904 19.164 55.9464 19.9 57.0984 19.9C58.2184 19.9 59.0024 19.132 59.0024 17.82V13.052H60.9544V21.5H59.0024V20.188C58.4584 20.988 57.6744 21.676 56.3624 21.676ZM63.3563 24.06V13.052H65.3083V14.46C65.9323 13.58 66.8123 12.876 68.1883 12.876C70.1723 12.876 72.1083 14.444 72.1083 17.26V17.292C72.1083 20.092 70.1883 21.676 68.1883 21.676C66.7803 21.676 65.9003 20.972 65.3083 20.188V24.06H63.3563ZM67.7243 19.996C69.0523 19.996 70.1403 18.956 70.1403 17.292V17.26C70.1403 15.628 69.0203 14.556 67.7243 14.556C66.4123 14.556 65.2603 15.644 65.2603 17.26V17.292C65.2603 18.908 66.4123 19.996 67.7243 19.996ZM74.0906 24.06V13.052H76.0426V14.46C76.6666 13.58 77.5466 12.876 78.9226 12.876C80.9066 12.876 82.8426 14.444 82.8426 17.26V17.292C82.8426 20.092 80.9226 21.676 78.9226 21.676C77.5146 21.676 76.6346 20.972 76.0426 20.188V24.06H74.0906ZM78.4586 19.996C79.7866 19.996 80.8746 18.956 80.8746 17.292V17.26C80.8746 15.628 79.7546 14.556 78.4586 14.556C77.1466 14.556 75.9946 15.644 75.9946 17.26V17.292C75.9946 18.908 77.1466 19.996 78.4586 19.996ZM88.857 21.692C86.281 21.692 84.377 19.724 84.377 17.324V17.292C84.377 14.876 86.297 12.876 88.889 12.876C91.481 12.876 93.385 14.844 93.385 17.26V17.292C93.385 19.692 91.465 21.692 88.857 21.692ZM88.889 19.996C90.457 19.996 91.449 18.78 91.449 17.324V17.292C91.449 15.804 90.377 14.572 88.857 14.572C87.305 14.572 86.313 15.788 86.313 17.26V17.292C86.313 18.764 87.385 19.996 88.889 19.996ZM95.3406 21.5V13.052H97.2926V14.956C97.8206 13.692 98.7966 12.828 100.285 12.892V14.94H100.173C98.4766 14.94 97.2926 16.044 97.2926 18.284V21.5H95.3406ZM104.798 21.644C103.374 21.644 102.366 21.02 102.366 19.164V14.716H101.294V13.052H102.366V10.732H104.302V13.052H106.574V14.716H104.302V18.86C104.302 19.612 104.686 19.916 105.342 19.916C105.774 19.916 106.158 19.82 106.542 19.628V21.212C106.062 21.484 105.534 21.644 104.798 21.644ZM116.989 19.324L119.197 13.052H121.213L117.853 21.724C117.181 23.468 116.429 24.108 115.069 24.108C114.269 24.108 113.661 23.916 113.069 23.58L113.725 22.156C114.077 22.348 114.461 22.476 114.861 22.476C115.405 22.476 115.741 22.236 116.061 21.516L112.541 13.052H114.621L116.989 19.324ZM126.404 21.692C123.828 21.692 121.924 19.724 121.924 17.324V17.292C121.924 14.876 123.844 12.876 126.436 12.876C129.028 12.876 130.932 14.844 130.932 17.26V17.292C130.932 19.692 129.012 21.692 126.404 21.692ZM126.436 19.996C128.004 19.996 128.996 18.78 128.996 17.324V17.292C128.996 15.804 127.924 14.572 126.404 14.572C124.852 14.572 123.86 15.788 123.86 17.26V17.292C123.86 18.764 124.932 19.996 126.436 19.996ZM135.816 21.676C133.912 21.676 132.808 20.396 132.808 18.428V13.052H134.744V17.852C134.744 19.164 135.4 19.9 136.552 19.9C137.672 19.9 138.456 19.132 138.456 17.82V13.052H140.408V21.5H138.456V20.188C137.912 20.988 137.128 21.676 135.816 21.676ZM142.809 21.5V13.052H144.761V14.956C145.289 13.692 146.265 12.828 147.753 12.892V14.94H147.641C145.945 14.94 144.761 16.044 144.761 18.284V21.5H142.809ZM158.136 21.692C155.624 21.692 153.768 19.724 153.768 17.324V17.292C153.768 14.892 155.624 12.876 158.168 12.876C159.752 12.876 160.744 13.468 161.544 14.332L160.328 15.628C159.736 15.02 159.112 14.572 158.152 14.572C156.744 14.572 155.704 15.788 155.704 17.26V17.292C155.704 18.796 156.744 19.996 158.232 19.996C159.144 19.996 159.8 19.58 160.424 18.956L161.592 20.108C160.76 21.036 159.784 21.692 158.136 21.692ZM167.154 21.692C164.578 21.692 162.674 19.724 162.674 17.324V17.292C162.674 14.876 164.594 12.876 167.186 12.876C169.778 12.876 171.682 14.844 171.682 17.26V17.292C171.682 19.692 169.762 21.692 167.154 21.692ZM167.186 19.996C168.754 19.996 169.746 18.78 169.746 17.324V17.292C169.746 15.804 168.674 14.572 167.154 14.572C165.602 14.572 164.61 15.788 164.61 17.26V17.292C164.61 18.764 165.682 19.996 167.186 19.996ZM173.75 21.5V9.82H175.702V21.5H173.75ZM178.328 21.5V9.82H180.28V21.5H178.328ZM186.682 21.692C184.234 21.692 182.346 19.916 182.346 17.308V17.276C182.346 14.86 184.058 12.876 186.474 12.876C189.162 12.876 190.522 14.988 190.522 17.42C190.522 17.596 190.506 17.772 190.49 17.964H184.282C184.49 19.34 185.466 20.108 186.714 20.108C187.658 20.108 188.33 19.756 189.002 19.1L190.138 20.108C189.338 21.068 188.234 21.692 186.682 21.692ZM184.266 16.684H188.602C188.474 15.436 187.738 14.46 186.458 14.46C185.274 14.46 184.442 15.372 184.266 16.684ZM194.898 21.676C193.314 21.676 191.89 20.764 191.89 19.068V19.036C191.89 17.212 193.33 16.316 195.394 16.316C196.338 16.316 197.01 16.46 197.666 16.668V16.46C197.666 15.26 196.93 14.62 195.57 14.62C194.626 14.62 193.922 14.828 193.154 15.148L192.626 13.628C193.57 13.212 194.482 12.94 195.826 12.94C197.09 12.94 198.034 13.276 198.626 13.884C199.25 14.492 199.538 15.388 199.538 16.492V21.5H197.65V20.444C197.074 21.132 196.194 21.676 194.898 21.676ZM195.442 20.268C196.722 20.268 197.698 19.532 197.698 18.46V17.884C197.202 17.692 196.546 17.548 195.778 17.548C194.53 17.548 193.794 18.076 193.794 18.956V18.988C193.794 19.804 194.514 20.268 195.442 20.268ZM205.617 24.092C204.225 24.092 202.929 23.74 201.841 23.084L202.561 21.628C203.473 22.188 204.417 22.508 205.569 22.508C207.297 22.508 208.241 21.628 208.241 19.932V19.292C207.537 20.188 206.657 20.828 205.265 20.828C203.265 20.828 201.425 19.356 201.425 16.876V16.844C201.425 14.348 203.297 12.876 205.265 12.876C206.689 12.876 207.569 13.532 208.225 14.316V13.052H210.161V19.772C210.161 21.196 209.793 22.252 209.089 22.956C208.321 23.724 207.137 24.092 205.617 24.092ZM205.777 19.18C207.121 19.18 208.257 18.236 208.257 16.86V16.828C208.257 15.452 207.121 14.524 205.777 14.524C204.433 14.524 203.377 15.436 203.377 16.828V16.86C203.377 18.236 204.449 19.18 205.777 19.18ZM215.503 21.676C213.599 21.676 212.495 20.396 212.495 18.428V13.052H214.431V17.852C214.431 19.164 215.087 19.9 216.239 19.9C217.359 19.9 218.143 19.132 218.143 17.82V13.052H220.095V21.5H218.143V20.188C217.599 20.988 216.815 21.676 215.503 21.676ZM226.385 21.692C223.937 21.692 222.049 19.916 222.049 17.308V17.276C222.049 14.86 223.761 12.876 226.177 12.876C228.865 12.876 230.225 14.988 230.225 17.42C230.225 17.596 230.209 17.772 230.193 17.964H223.985C224.193 19.34 225.169 20.108 226.417 20.108C227.361 20.108 228.033 19.756 228.705 19.1L229.841 20.108C229.041 21.068 227.937 21.692 226.385 21.692ZM223.969 16.684H228.305C228.177 15.436 227.441 14.46 226.161 14.46C224.977 14.46 224.145 15.372 223.969 16.684ZM235.065 21.66C233.865 21.66 232.537 21.244 231.481 20.396L232.345 19.084C233.273 19.772 234.249 20.124 235.113 20.124C235.945 20.124 236.425 19.772 236.425 19.212V19.18C236.425 18.524 235.529 18.3 234.537 17.996C233.289 17.644 231.897 17.132 231.897 15.532V15.5C231.897 13.884 233.225 12.908 234.905 12.908C235.961 12.908 237.113 13.276 238.009 13.868L237.241 15.244C236.425 14.748 235.561 14.444 234.857 14.444C234.105 14.444 233.673 14.812 233.673 15.276V15.308C233.673 15.932 234.585 16.188 235.577 16.508C236.809 16.892 238.201 17.452 238.201 18.972V19.004C238.201 20.78 236.825 21.66 235.065 21.66Z" fill="#121118"/>
    <defs>
        <clipPath id="clip0_1991_11233">
            <rect width="32" height="32" fill="white"/>
        </clipPath>
    </defs>
</svg>
