<svg width="195" height="32" viewBox="0 0 195 32" fill="none" xmlns="http://www.w3.org/2000/svg">
    <g clip-path="url(#clip0_1297_26416)">
        <path d="M32 0H0V32H32V0Z" fill="#005BBB"/>
        <path d="M32 16H0V32H32V16Z" fill="#FFD500"/>
        <path fill-rule="evenodd" clip-rule="evenodd" d="M15.9999 26.5604C21.8321 26.5604 26.5599 21.8326 26.5599 16.0004C26.5599 10.1683 21.8321 5.44043 15.9999 5.44043C10.1678 5.44043 5.43994 10.1683 5.43994 16.0004C5.43994 21.8326 10.1678 26.5604 15.9999 26.5604ZM10.506 18.0707L9.64895 17.2136C8.11967 15.6843 8.11967 13.2048 9.64895 11.6755C11.1782 10.1462 13.6577 10.1462 15.187 11.6755L16.0441 12.5326L16.9011 11.6755C18.4303 10.1462 20.9099 10.1462 22.4391 11.6755C23.9684 13.2048 23.9684 15.6843 22.4391 17.2136L21.582 18.0707L16.0441 23.6086L10.506 18.0707Z" fill="white"/>
    </g>
    <path d="M47.36 20.66C49.712 20.66 51.36 19.412 51.36 17.316V17.284C51.36 15.428 50.128 14.58 47.76 14.004C45.616 13.492 45.104 13.108 45.104 12.244V12.212C45.104 11.476 45.776 10.884 46.928 10.884C47.952 10.884 48.96 11.284 49.968 12.036L51.024 10.548C49.888 9.636 48.592 9.14 46.96 9.14C44.736 9.14 43.136 10.468 43.136 12.388V12.42C43.136 14.484 44.48 15.188 46.864 15.764C48.944 16.244 49.392 16.676 49.392 17.476V17.508C49.392 18.356 48.624 18.916 47.408 18.916C46.016 18.916 44.944 18.388 43.872 17.46L42.688 18.868C44.032 20.068 45.648 20.66 47.36 20.66ZM56.2043 20.644C56.9243 20.644 57.4683 20.484 57.9483 20.212V18.628C57.5643 18.82 57.1803 18.916 56.7483 18.916C56.0923 18.916 55.7083 18.612 55.7083 17.86V13.716H57.9803V12.052H55.7083V9.732H53.7723V12.052H52.7003V13.716H53.7723V18.164C53.7723 20.02 54.7803 20.644 56.2043 20.644ZM67.0228 20.5V15.492C67.0228 13.236 65.8068 11.924 63.3108 11.924C61.9348 11.924 61.0228 12.212 60.0948 12.628L60.6228 14.18C61.3908 13.86 62.0948 13.652 63.0388 13.652C64.3828 13.652 65.1188 14.292 65.1188 15.46V15.62C64.4628 15.412 63.8068 15.268 62.7828 15.268C60.8148 15.268 59.3588 16.164 59.3588 18.036V18.068C59.3588 19.764 60.7668 20.676 62.3668 20.676C63.6468 20.676 64.5268 20.148 65.1028 19.46V20.5H67.0228ZM65.1508 17.444C65.1508 18.5 64.1908 19.22 62.9108 19.22C61.9988 19.22 61.2788 18.772 61.2788 17.972V17.94C61.2788 17.124 61.9988 16.628 63.2148 16.628C63.9668 16.628 64.6548 16.772 65.1508 16.964V17.444ZM69.3254 20.5H71.2614V15.732C71.2614 14.42 72.0454 13.636 73.1654 13.636C74.3174 13.636 74.9734 14.388 74.9734 15.7V20.5H76.9094V15.124C76.9094 13.156 75.8054 11.876 73.9014 11.876C72.5894 11.876 71.8054 12.564 71.2614 13.364V12.052H69.3254V20.5ZM82.7352 20.676C84.1113 20.676 84.9913 19.972 85.6153 19.092V20.5H87.5513V8.82H85.6153V13.364C85.0073 12.58 84.1273 11.876 82.7352 11.876C80.7193 11.876 78.8153 13.46 78.8153 16.26V16.292C78.8153 19.092 80.7513 20.676 82.7352 20.676ZM83.1993 18.996C81.8873 18.996 80.7673 17.924 80.7673 16.292V16.26C80.7673 14.58 81.8713 13.556 83.1993 13.556C84.4953 13.556 85.6473 14.628 85.6473 16.26V16.292C85.6473 17.908 84.4953 18.996 83.1993 18.996ZM96.7949 20.564H98.5229L100.427 14.788L102.315 20.564H104.043L106.811 12.052H104.875L103.147 17.844L101.259 12.02H99.6109L97.7389 17.844L96.0429 12.052H94.0589L96.7949 20.564ZM108.576 10.756H110.656V8.916H108.576V10.756ZM108.656 20.5H110.592V12.052H108.656V20.5ZM115.954 20.644C116.674 20.644 117.218 20.484 117.698 20.212V18.628C117.314 18.82 116.93 18.916 116.498 18.916C115.842 18.916 115.458 18.612 115.458 17.86V13.716H117.73V12.052H115.458V9.732H113.522V12.052H112.45V13.716H113.522V18.164C113.522 20.02 114.53 20.644 115.954 20.644ZM119.685 20.5H121.621V15.732C121.621 14.42 122.405 13.636 123.525 13.636C124.677 13.636 125.333 14.388 125.333 15.7V20.5H127.269V15.124C127.269 13.156 126.165 11.876 124.261 11.876C122.949 11.876 122.165 12.564 121.621 13.364V8.82H119.685V20.5ZM139.22 20.676C142.148 20.676 144.036 18.996 144.036 15.652V9.3H142.068V15.748C142.068 17.812 140.996 18.868 139.252 18.868C137.492 18.868 136.42 17.748 136.42 15.668V9.3H134.452V15.748C134.452 18.996 136.308 20.676 139.22 20.676ZM146.513 20.5H148.449V18.084L149.633 16.852L152.177 20.5H154.417L150.945 15.492L154.305 12.052H151.953L148.449 15.796V8.82H146.513V20.5ZM155.825 20.5H157.761V17.284C157.761 15.044 158.945 13.94 160.641 13.94H160.753V11.892C159.265 11.828 158.289 12.692 157.761 13.956V12.052H155.825V20.5ZM169.117 20.5V15.492C169.117 13.236 167.901 11.924 165.405 11.924C164.029 11.924 163.117 12.212 162.189 12.628L162.717 14.18C163.485 13.86 164.189 13.652 165.133 13.652C166.477 13.652 167.213 14.292 167.213 15.46V15.62C166.557 15.412 165.901 15.268 164.877 15.268C162.909 15.268 161.453 16.164 161.453 18.036V18.068C161.453 19.764 162.861 20.676 164.461 20.676C165.741 20.676 166.621 20.148 167.197 19.46V20.5H169.117ZM167.245 17.444C167.245 18.5 166.285 19.22 165.005 19.22C164.093 19.22 163.373 18.772 163.373 17.972V17.94C163.373 17.124 164.093 16.628 165.309 16.628C166.061 16.628 166.749 16.772 167.245 16.964V17.444ZM171.451 10.756H173.531V8.916H171.451V10.756ZM171.531 20.5H173.467V12.052H171.531V20.5ZM175.997 20.5H177.933V15.732C177.933 14.42 178.717 13.636 179.837 13.636C180.989 13.636 181.645 14.388 181.645 15.7V20.5H183.581V15.124C183.581 13.156 182.477 11.876 180.573 11.876C179.261 11.876 178.477 12.564 177.933 13.364V12.052H175.997V20.5ZM189.791 20.692C191.343 20.692 192.447 20.068 193.247 19.108L192.111 18.1C191.439 18.756 190.767 19.108 189.823 19.108C188.575 19.108 187.599 18.34 187.391 16.964H193.599C193.615 16.772 193.631 16.596 193.631 16.42C193.631 13.988 192.271 11.876 189.583 11.876C187.167 11.876 185.455 13.86 185.455 16.276V16.308C185.455 18.916 187.343 20.692 189.791 20.692ZM187.375 15.684C187.551 14.372 188.383 13.46 189.567 13.46C190.847 13.46 191.583 14.436 191.711 15.684H187.375Z" fill="#121118"/>
    <defs>
        <clipPath id="clip0_1297_26416">
            <rect width="32" height="32" fill="white"/>
        </clipPath>
    </defs>
</svg>
