<svg width="412" height="32" viewBox="0 0 412 32" fill="none" xmlns="http://www.w3.org/2000/svg">
    <g clip-path="url(#clip0_2051_6955)">
        <path d="M32 0H0V32H32V0Z" fill="#005BBB"/>
        <path d="M32 16H0V32H32V16Z" fill="#FFD500"/>
        <path fill-rule="evenodd" clip-rule="evenodd" d="M15.9999 26.5599C21.8321 26.5599 26.5599 21.8321 26.5599 15.9999C26.5599 10.1678 21.8321 5.43994 15.9999 5.43994C10.1678 5.43994 5.43994 10.1678 5.43994 15.9999C5.43994 21.8321 10.1678 26.5599 15.9999 26.5599ZM10.506 18.0702L9.64895 17.2131C8.11967 15.6838 8.11967 13.2043 9.64895 11.675C11.1782 10.1457 13.6577 10.1457 15.187 11.675L16.0441 12.5321L16.9011 11.675C18.4303 10.1457 20.9099 10.1457 22.4391 11.675C23.9684 13.2043 23.9684 15.6838 22.4391 17.2131L21.582 18.0702L16.0441 23.6081L10.506 18.0702Z" fill="white"/>
    </g>
    <path d="M43.44 21.5V10.3H51.568V12.06H45.376V14.812H48.48C50.96 14.812 52.544 15.932 52.544 18.06V18.076C52.544 20.252 50.88 21.5 48.352 21.5H43.44ZM45.376 19.74H48.4C49.664 19.74 50.56 19.18 50.56 18.124V18.108C50.56 17.052 49.728 16.54 48.432 16.54H45.376V19.74ZM59.8584 21.66V20.444C56.1784 20.38 54.0664 18.524 54.0664 15.868C54.0664 13.244 56.1624 11.356 59.8584 11.276V10.14H61.8264V11.276C65.5064 11.34 67.6344 13.196 67.6344 15.852C67.6344 18.492 65.5224 20.38 61.8264 20.444V21.66H59.8584ZM65.5864 15.868C65.5864 14.236 64.3544 13.036 61.7944 13.004V18.716C64.3224 18.7 65.5864 17.516 65.5864 15.868ZM56.1144 15.868C56.1144 17.516 57.3304 18.684 59.8904 18.716V13.004C57.3464 13.036 56.1144 14.22 56.1144 15.868ZM77.97 14.748V12.876C77.97 11.1 78.818 10.348 80.434 10.22L80.642 11.052C79.666 11.228 79.202 11.724 79.282 12.556H80.098V14.748H77.97ZM74.258 14.748V12.876C74.258 11.1 75.106 10.348 76.722 10.22L76.93 11.052C75.954 11.228 75.49 11.724 75.57 12.556H76.386V14.748H74.258ZM88.0496 21.692C84.6096 21.692 82.2096 19.084 82.2096 15.932V15.9C82.2096 12.748 84.6416 10.108 88.0816 10.108C91.5216 10.108 93.9216 12.716 93.9216 15.868V15.9C93.9216 19.052 91.4896 21.692 88.0496 21.692ZM88.0816 19.868C90.3056 19.868 91.8576 18.108 91.8576 15.932V15.9C91.8576 13.724 90.2736 11.932 88.0496 11.932C85.8256 11.932 84.2736 13.692 84.2736 15.868V15.9C84.2736 18.076 85.8576 19.868 88.0816 19.868ZM96.2994 21.5V10.3H104.427V12.06H98.2354V14.812H101.339C103.819 14.812 105.403 15.932 105.403 18.06V18.076C105.403 20.252 103.739 21.5 101.211 21.5H96.2994ZM98.2354 19.74H101.259C102.523 19.74 103.419 19.18 103.419 18.124V18.108C103.419 17.052 102.587 16.54 101.291 16.54H98.2354V19.74ZM106.988 14.828L106.78 13.996C107.756 13.82 108.22 13.324 108.156 12.508H107.324V10.3H109.452V12.172C109.452 13.948 108.604 14.7 106.988 14.828ZM117.045 21.692C113.781 21.692 111.397 19.148 111.397 15.932V15.9C111.397 12.716 113.749 10.108 117.125 10.108C119.205 10.108 120.453 10.828 121.525 11.852L120.261 13.292C119.365 12.444 118.437 11.9 117.141 11.9C115.221 11.9 113.797 13.212 113.493 15.02H118.917V16.7H113.477C113.765 18.572 115.205 19.9 117.125 19.9C118.517 19.9 119.381 19.356 120.341 18.444L121.589 19.708C120.437 20.924 119.157 21.692 117.045 21.692ZM122.762 19.708H123.866L127.946 10.22H130.026L134.09 19.708H135.21V23.804H133.354V21.5H124.618V23.804H122.762V19.708ZM128.954 12.412L125.898 19.772H132.01L128.954 12.412ZM137.174 21.5V10.3H139.142V14.956H144.486V10.3H146.454V21.5H144.486V16.78H139.142V21.5H137.174ZM148.371 21.5L153.299 10.22H155.123L160.051 21.5H157.971L156.835 18.796H151.539L150.387 21.5H148.371ZM152.259 17.052H156.115L154.179 12.572L152.259 17.052ZM161.971 21.5V10.3H163.939V14.956H169.283V10.3H171.251V21.5H169.283V16.78H163.939V21.5H161.971ZM173.168 21.5L178.096 10.22H179.92L184.848 21.5H182.768L181.632 18.796H176.336L175.184 21.5H173.168ZM177.056 17.052H180.911L178.976 12.572L177.056 17.052ZM194.973 21.5H192.781L195.021 17.644L190.541 10.3H192.781L196.109 15.884L199.149 10.3H201.341L194.973 21.5ZM203.049 21.5V10.3H205.017L205.001 14.956H206.233L210.441 10.3H212.921L207.817 15.708L213.193 21.5H210.665L206.281 16.7H205.001L205.017 21.5H203.049ZM214.784 21.5V10.3H219.2C221.824 10.3 223.456 11.788 223.456 14.044V14.076C223.456 16.588 221.44 17.9 218.976 17.9H216.752V21.5H214.784ZM216.752 16.124H219.04C220.528 16.124 221.456 15.292 221.456 14.124V14.092C221.456 12.78 220.512 12.092 219.04 12.092H216.752V16.124ZM223.386 21.5L228.314 10.22H230.138L235.066 21.5H232.986L231.85 18.796H226.554L225.402 21.5H223.386ZM227.274 17.052H231.13L229.194 12.572L227.274 17.052ZM237.099 21.5V10.3H239.067V21.5H237.099ZM238.731 9.372V7.58H240.731V9.372H238.731ZM235.451 9.372V7.58H237.451V9.372H235.451ZM242.065 21.5V10.3H244.033V14.956H249.377V10.3H251.345V21.5H249.377V16.78H244.033V21.5H242.065ZM259.421 21.692C256.141 21.692 253.725 19.148 253.725 15.932V15.9C253.725 12.716 256.109 10.108 259.485 10.108C261.565 10.108 262.813 10.828 263.885 11.852L262.621 13.308C261.709 12.476 260.765 11.932 259.469 11.932C257.357 11.932 255.789 13.676 255.789 15.868V15.9C255.789 18.092 257.341 19.868 259.485 19.868C260.861 19.868 261.741 19.324 262.701 18.428L263.965 19.708C262.797 20.924 261.517 21.692 259.421 21.692ZM266.049 21.5V10.3H268.017V14.028H270.385C272.993 14.028 274.721 15.308 274.721 17.692V17.724C274.721 20.092 272.993 21.5 270.257 21.5H266.049ZM268.017 19.708H270.305C271.761 19.708 272.721 19.004 272.721 17.756V17.74C272.721 16.492 271.825 15.804 270.337 15.804H268.017V19.708ZM276.799 21.5V10.3H278.767L278.751 14.956H279.983L284.191 10.3H286.671L281.567 15.708L286.943 21.5H284.415L280.031 16.7H278.751L278.767 21.5H276.799ZM287.261 21.5L292.189 10.22H294.013L298.941 21.5H296.861L295.725 18.796H290.429L289.277 21.5H287.261ZM291.149 17.052H295.005L293.069 12.572L291.149 17.052ZM305.659 21.5V10.3H314.891V21.5H312.907V12.092H307.627V21.5H305.659ZM317.865 21.5V10.3H319.833V21.5H317.865ZM321.919 19.708H323.023L327.103 10.22H329.183L333.247 19.708H334.367V23.804H332.511V21.5H323.775V23.804H321.919V19.708ZM328.111 12.412L325.055 19.772H331.167L328.111 12.412ZM337.489 21.5V12.124H333.921V10.3H343.025V12.124H339.457V21.5H337.489ZM345.065 21.5V10.3H349.481C352.105 10.3 353.737 11.788 353.737 14.044V14.076C353.737 16.588 351.721 17.9 349.257 17.9H347.033V21.5H345.065ZM347.033 16.124H349.321C350.809 16.124 351.737 15.292 351.737 14.124V14.092C351.737 12.78 350.793 12.092 349.321 12.092H347.033V16.124ZM365.513 21.5H363.545V13.404L357.465 21.5H355.753V10.3H357.721V18.188L363.625 10.3H365.513V21.5ZM368.393 21.5V10.3H370.489L373.897 15.596L377.305 10.3H379.401V21.5H377.433V13.468L373.897 18.748H373.833L370.329 13.5V21.5H368.393ZM382.284 21.5V10.3H384.252L384.236 14.956H385.468L389.676 10.3H392.156L387.052 15.708L392.428 21.5H389.9L385.516 16.7H384.236L384.252 21.5H382.284ZM392.746 21.5L397.674 10.22H399.498L404.426 21.5H402.346L401.21 18.796H395.914L394.762 21.5H392.746ZM396.634 17.052H400.49L398.554 12.572L396.634 17.052ZM408.169 14.828L407.961 13.996C408.937 13.82 409.401 13.324 409.321 12.508H408.505V10.3H410.633V12.172C410.633 13.948 409.785 14.7 408.169 14.828ZM404.457 14.828L404.249 13.996C405.225 13.82 405.689 13.324 405.625 12.508H404.793V10.3H406.921V12.172C406.921 13.948 406.073 14.7 404.457 14.828Z" fill="#121118"/>
    <defs>
        <clipPath id="clip0_2051_6955">
            <rect width="32" height="32" fill="white"/>
        </clipPath>
    </defs>
</svg>
