<svg width="361" height="32" viewBox="0 0 361 32" fill="none" xmlns="http://www.w3.org/2000/svg">
    <g clip-path="url(#clip0_1999_11085)">
        <path d="M32 0H0V32H32V0Z" fill="#005BBB"/>
        <path d="M32 16H0V32H32V16Z" fill="#FFD500"/>
        <path fill-rule="evenodd" clip-rule="evenodd" d="M16 26.5599C21.8322 26.5599 26.56 21.8321 26.56 15.9999C26.56 10.1678 21.8322 5.43994 16 5.43994C10.1679 5.43994 5.44 10.1678 5.44 15.9999C5.44 21.8321 10.1679 26.5599 16 26.5599ZM10.5061 18.0702L9.64901 17.2131C8.11973 15.6838 8.11973 13.2043 9.64901 11.675C11.1783 10.1457 13.6577 10.1457 15.187 11.675L16.0442 12.5321L16.9011 11.675C18.4304 10.1457 20.9099 10.1457 22.4392 11.675C23.9685 13.2043 23.9685 15.6838 22.4392 17.2131L21.5821 18.0702L16.0442 23.6081L10.5061 18.0702Z" fill="white"/>
    </g>
    <path d="M48.64 21.692C45.36 21.692 42.944 19.148 42.944 15.932V15.9C42.944 12.716 45.328 10.108 48.704 10.108C50.784 10.108 52.032 10.828 53.104 11.852L51.84 13.308C50.928 12.476 49.984 11.932 48.688 11.932C46.576 11.932 45.008 13.676 45.008 15.868V15.9C45.008 18.092 46.56 19.868 48.704 19.868C50.08 19.868 50.96 19.324 51.92 18.428L53.184 19.708C52.016 20.924 50.736 21.692 48.64 21.692ZM55.0281 21.5V9.82H56.9801V14.348C57.5241 13.564 58.3081 12.876 59.6201 12.876C61.5241 12.876 62.6281 14.156 62.6281 16.108V21.5H60.6921V16.7C60.6921 15.388 60.0361 14.636 58.8841 14.636C57.7641 14.636 56.9801 15.42 56.9801 16.732V21.5H55.0281ZM67.398 21.676C65.814 21.676 64.39 20.764 64.39 19.068V19.036C64.39 17.212 65.83 16.316 67.894 16.316C68.838 16.316 69.51 16.46 70.166 16.668V16.46C70.166 15.26 69.43 14.62 68.07 14.62C67.126 14.62 66.422 14.828 65.654 15.148L65.126 13.628C66.07 13.212 66.982 12.94 68.326 12.94C69.59 12.94 70.534 13.276 71.126 13.884C71.75 14.492 72.038 15.388 72.038 16.492V21.5H70.15V20.444C69.574 21.132 68.694 21.676 67.398 21.676ZM67.942 20.268C69.222 20.268 70.198 19.532 70.198 18.46V17.884C69.702 17.692 69.046 17.548 68.278 17.548C67.03 17.548 66.294 18.076 66.294 18.956V18.988C66.294 19.804 67.014 20.268 67.942 20.268ZM74.3406 21.5V13.052H76.2926V14.956C76.8206 13.692 77.7966 12.828 79.2846 12.892V14.94H79.1726C77.4766 14.94 76.2926 16.044 76.2926 18.284V21.5H74.3406ZM80.998 11.756V9.916H83.078V11.756H80.998ZM81.062 21.5V13.052H83.014V21.5H81.062ZM88.3761 21.644C86.9521 21.644 85.9441 21.02 85.9441 19.164V14.716H84.8721V13.052H85.9441V10.732H87.8801V13.052H90.1521V14.716H87.8801V18.86C87.8801 19.612 88.2641 19.916 88.9201 19.916C89.3521 19.916 89.7361 19.82 90.1201 19.628V21.212C89.6401 21.484 89.1121 21.644 88.3761 21.644ZM95.7703 19.324L97.9783 13.052H99.9943L96.6343 21.724C95.9623 23.468 95.2103 24.108 93.8503 24.108C93.0503 24.108 92.4423 23.916 91.8503 23.58L92.5063 22.156C92.8583 22.348 93.2423 22.476 93.6423 22.476C94.1863 22.476 94.5223 22.236 94.8423 21.516L91.3223 13.052H93.4023L95.7703 19.324ZM112.018 21.692C108.578 21.692 106.178 19.084 106.178 15.932V15.9C106.178 12.748 108.61 10.108 112.05 10.108C115.49 10.108 117.89 12.716 117.89 15.868V15.9C117.89 19.052 115.458 21.692 112.018 21.692ZM112.05 19.868C114.274 19.868 115.826 18.108 115.826 15.932V15.9C115.826 13.724 114.242 11.932 112.018 11.932C109.794 11.932 108.242 13.692 108.242 15.868V15.9C108.242 18.076 109.826 19.868 112.05 19.868ZM120.028 21.5V13.052H121.98V14.956C122.508 13.692 123.484 12.828 124.972 12.892V14.94H124.86C123.164 14.94 121.98 16.044 121.98 18.284V21.5H120.028ZM130.195 24.092C128.803 24.092 127.507 23.74 126.419 23.084L127.139 21.628C128.051 22.188 128.995 22.508 130.147 22.508C131.875 22.508 132.819 21.628 132.819 19.932V19.292C132.115 20.188 131.235 20.828 129.843 20.828C127.843 20.828 126.003 19.356 126.003 16.876V16.844C126.003 14.348 127.875 12.876 129.843 12.876C131.267 12.876 132.147 13.532 132.803 14.316V13.052H134.739V19.772C134.739 21.196 134.371 22.252 133.667 22.956C132.899 23.724 131.715 24.092 130.195 24.092ZM130.355 19.18C131.699 19.18 132.835 18.236 132.835 16.86V16.828C132.835 15.452 131.699 14.524 130.355 14.524C129.011 14.524 127.955 15.436 127.955 16.828V16.86C127.955 18.236 129.027 19.18 130.355 19.18ZM145.47 14.748V12.876C145.47 11.1 146.318 10.348 147.934 10.22L148.142 11.052C147.166 11.228 146.702 11.724 146.782 12.556H147.598V14.748H145.47ZM141.758 14.748V12.876C141.758 11.1 142.606 10.348 144.222 10.22L144.43 11.052C143.454 11.228 142.99 11.724 143.07 12.556H143.886V14.748H141.758ZM154.798 21.676C151.886 21.676 150.03 19.996 150.03 16.748V10.3H151.998V16.668C151.998 18.748 153.07 19.852 154.83 19.852C156.574 19.852 157.646 18.812 157.646 16.748V10.3H159.614V16.652C159.614 19.996 157.726 21.676 154.798 21.676ZM162.075 21.5V13.052H164.027V14.348C164.571 13.564 165.355 12.876 166.667 12.876C168.571 12.876 169.675 14.156 169.675 16.108V21.5H167.739V16.7C167.739 15.388 167.083 14.636 165.931 14.636C164.811 14.636 164.027 15.42 164.027 16.732V21.5H162.075ZM172.045 11.756V9.916H174.125V11.756H172.045ZM172.109 21.5V13.052H174.061V21.5H172.109ZM179.423 21.644C177.999 21.644 176.991 21.02 176.991 19.164V14.716H175.919V13.052H176.991V10.732H178.927V13.052H181.199V14.716H178.927V18.86C178.927 19.612 179.311 19.916 179.967 19.916C180.399 19.916 180.783 19.82 181.167 19.628V21.212C180.687 21.484 180.159 21.644 179.423 21.644ZM186.807 21.692C184.359 21.692 182.471 19.916 182.471 17.308V17.276C182.471 14.86 184.183 12.876 186.599 12.876C189.287 12.876 190.647 14.988 190.647 17.42C190.647 17.596 190.631 17.772 190.615 17.964H184.407C184.615 19.34 185.591 20.108 186.839 20.108C187.783 20.108 188.455 19.756 189.127 19.1L190.263 20.108C189.463 21.068 188.359 21.692 186.807 21.692ZM184.391 16.684H188.727C188.599 15.436 187.863 14.46 186.583 14.46C185.399 14.46 184.567 15.372 184.391 16.684ZM196.079 21.676C194.095 21.676 192.159 20.092 192.159 17.292V17.26C192.159 14.46 194.063 12.876 196.079 12.876C197.471 12.876 198.351 13.564 198.959 14.364V9.82H200.895V21.5H198.959V20.092C198.335 20.972 197.455 21.676 196.079 21.676ZM196.543 19.996C197.839 19.996 198.991 18.908 198.991 17.292V17.26C198.991 15.628 197.839 14.556 196.543 14.556C195.215 14.556 194.111 15.596 194.111 17.26V17.292C194.111 18.924 195.231 19.996 196.543 19.996ZM212.938 21.676C210.026 21.676 208.17 19.996 208.17 16.748V10.3H210.138V16.668C210.138 18.748 211.21 19.852 212.97 19.852C214.714 19.852 215.786 18.812 215.786 16.748V10.3H217.754V16.652C217.754 19.996 215.866 21.676 212.938 21.676ZM220.216 21.5V9.82H222.168V16.796L225.672 13.052H228.024L224.664 16.492L228.136 21.5H225.864L223.368 17.836L222.168 19.084V21.5H220.216ZM229.528 21.5V13.052H231.48V14.956C232.008 13.692 232.984 12.828 234.472 12.892V14.94H234.36C232.664 14.94 231.48 16.044 231.48 18.284V21.5H229.528ZM238.179 21.676C236.595 21.676 235.171 20.764 235.171 19.068V19.036C235.171 17.212 236.611 16.316 238.675 16.316C239.619 16.316 240.291 16.46 240.947 16.668V16.46C240.947 15.26 240.211 14.62 238.851 14.62C237.907 14.62 237.203 14.828 236.435 15.148L235.907 13.628C236.851 13.212 237.763 12.94 239.107 12.94C240.371 12.94 241.315 13.276 241.907 13.884C242.531 14.492 242.819 15.388 242.819 16.492V21.5H240.931V20.444C240.355 21.132 239.475 21.676 238.179 21.676ZM238.723 20.268C240.003 20.268 240.979 19.532 240.979 18.46V17.884C240.483 17.692 239.827 17.548 239.059 17.548C237.811 17.548 237.075 18.076 237.075 18.956V18.988C237.075 19.804 237.795 20.268 238.723 20.268ZM245.17 11.756V9.916H247.25V11.756H245.17ZM245.234 21.5V13.052H247.186V21.5H245.234ZM249.7 21.5V13.052H251.652V14.348C252.196 13.564 252.98 12.876 254.292 12.876C256.196 12.876 257.3 14.156 257.3 16.108V21.5H255.364V16.7C255.364 15.388 254.708 14.636 253.556 14.636C252.436 14.636 251.652 15.42 251.652 16.732V21.5H249.7ZM259.67 11.756V9.916H261.75V11.756H259.67ZM259.734 21.5V13.052H261.686V21.5H259.734ZM266.648 21.676C265.064 21.676 263.64 20.764 263.64 19.068V19.036C263.64 17.212 265.08 16.316 267.144 16.316C268.088 16.316 268.76 16.46 269.416 16.668V16.46C269.416 15.26 268.68 14.62 267.32 14.62C266.376 14.62 265.672 14.828 264.904 15.148L264.376 13.628C265.32 13.212 266.232 12.94 267.576 12.94C268.84 12.94 269.784 13.276 270.376 13.884C271 14.492 271.288 15.388 271.288 16.492V21.5H269.4V20.444C268.824 21.132 267.944 21.676 266.648 21.676ZM267.192 20.268C268.472 20.268 269.448 19.532 269.448 18.46V17.884C268.952 17.692 268.296 17.548 267.528 17.548C266.28 17.548 265.544 18.076 265.544 18.956V18.988C265.544 19.804 266.264 20.268 267.192 20.268ZM273.591 21.5V13.052H275.543V14.348C276.087 13.564 276.871 12.876 278.183 12.876C280.087 12.876 281.191 14.156 281.191 16.108V21.5H279.255V16.7C279.255 15.388 278.599 14.636 277.447 14.636C276.327 14.636 275.543 15.42 275.543 16.732V21.5H273.591ZM292.469 21.66C290.757 21.66 289.141 21.068 287.797 19.868L288.981 18.46C290.053 19.388 291.141 19.916 292.517 19.916C293.733 19.916 294.501 19.34 294.501 18.508V18.476C294.501 17.676 294.053 17.244 291.973 16.764C289.589 16.188 288.245 15.484 288.245 13.42V13.388C288.245 11.468 289.845 10.14 292.069 10.14C293.701 10.14 294.997 10.636 296.133 11.548L295.077 13.036C294.069 12.284 293.061 11.884 292.037 11.884C290.885 11.884 290.213 12.476 290.213 13.212V13.244C290.213 14.108 290.725 14.492 292.885 15.004C295.253 15.58 296.469 16.428 296.469 18.284V18.316C296.469 20.412 294.821 21.66 292.469 21.66ZM301.472 21.676C299.568 21.676 298.464 20.396 298.464 18.428V13.052H300.4V17.852C300.4 19.164 301.056 19.9 302.208 19.9C303.328 19.9 304.112 19.132 304.112 17.82V13.052H306.064V21.5H304.112V20.188C303.568 20.988 302.784 21.676 301.472 21.676ZM308.466 24.06V13.052H310.418V14.46C311.042 13.58 311.922 12.876 313.298 12.876C315.282 12.876 317.218 14.444 317.218 17.26V17.292C317.218 20.092 315.298 21.676 313.298 21.676C311.89 21.676 311.01 20.972 310.418 20.188V24.06H308.466ZM312.834 19.996C314.162 19.996 315.25 18.956 315.25 17.292V17.26C315.25 15.628 314.13 14.556 312.834 14.556C311.522 14.556 310.37 15.644 310.37 17.26V17.292C310.37 18.908 311.522 19.996 312.834 19.996ZM319.2 24.06V13.052H321.152V14.46C321.776 13.58 322.656 12.876 324.032 12.876C326.016 12.876 327.952 14.444 327.952 17.26V17.292C327.952 20.092 326.032 21.676 324.032 21.676C322.624 21.676 321.744 20.972 321.152 20.188V24.06H319.2ZM323.568 19.996C324.896 19.996 325.984 18.956 325.984 17.292V17.26C325.984 15.628 324.864 14.556 323.568 14.556C322.256 14.556 321.104 15.644 321.104 17.26V17.292C321.104 18.908 322.256 19.996 323.568 19.996ZM333.966 21.692C331.39 21.692 329.486 19.724 329.486 17.324V17.292C329.486 14.876 331.406 12.876 333.998 12.876C336.59 12.876 338.494 14.844 338.494 17.26V17.292C338.494 19.692 336.574 21.692 333.966 21.692ZM333.998 19.996C335.566 19.996 336.558 18.78 336.558 17.324V17.292C336.558 15.804 335.486 14.572 333.966 14.572C332.414 14.572 331.422 15.788 331.422 17.26V17.292C331.422 18.764 332.494 19.996 333.998 19.996ZM340.45 21.5V13.052H342.402V14.956C342.93 13.692 343.906 12.828 345.394 12.892V14.94H345.282C343.586 14.94 342.402 16.044 342.402 18.284V21.5H340.45ZM349.907 21.644C348.483 21.644 347.475 21.02 347.475 19.164V14.716H346.403V13.052H347.475V10.732H349.411V13.052H351.683V14.716H349.411V18.86C349.411 19.612 349.795 19.916 350.451 19.916C350.883 19.916 351.267 19.82 351.651 19.628V21.212C351.171 21.484 350.643 21.644 349.907 21.644ZM357.091 14.828L356.883 13.996C357.859 13.82 358.323 13.324 358.243 12.508H357.427V10.3H359.555V12.172C359.555 13.948 358.707 14.7 357.091 14.828ZM353.379 14.828L353.171 13.996C354.147 13.82 354.611 13.324 354.547 12.508H353.715V10.3H355.843V12.172C355.843 13.948 354.995 14.7 353.379 14.828Z" fill="#121118"/>
    <defs>
        <clipPath id="clip0_1999_11085">
            <rect width="32" height="32" fill="white"/>
        </clipPath>
    </defs>
</svg>
