<svg width="64" height="64" viewBox="0 0 64 64" fill="none" xmlns="http://www.w3.org/2000/svg">
<mask id="path-1-inside-1_234_11502" fill="white">
<path fill-rule="evenodd" clip-rule="evenodd" d="M31.9038 44.1555C31.9038 44.1555 16.4632 27.7297 24.2997 22.3594C24.8454 21.9188 25.4735 21.5911 26.1475 21.3958C26.8215 21.2003 27.5277 21.1409 28.2249 21.2212C28.9221 21.3015 29.5962 21.5197 30.208 21.8631C30.8197 22.2065 31.3567 22.6682 31.7876 23.2213C32.2183 22.6731 32.7534 22.2155 33.3623 21.8751C33.9711 21.5347 34.6416 21.3181 35.3349 21.2379C36.0279 21.1578 36.7302 21.2156 37.4011 21.4082C38.0718 21.6006 38.6974 21.9239 39.2422 22.3594C47.1951 27.7297 31.9038 44.1555 31.9038 44.1555ZM31.771 26.2711C31.2784 25.6611 30.7219 25.1054 30.1108 24.6136C29.4934 24.0738 28.7079 23.7641 27.8878 23.7369C27.0675 23.7097 26.2632 23.9668 25.6114 24.4644C25.2917 24.6636 25.0241 24.9357 24.8306 25.2585C24.6372 25.5814 24.5235 25.9455 24.4989 26.3208C24.4904 26.481 24.4904 26.6414 24.4989 26.8016C24.4989 30.415 28.4338 36.2991 31.8373 40.36C35.158 36.3157 39.0595 30.415 39.0595 26.8513C39.0688 26.6856 39.0688 26.5197 39.0595 26.354C39.0357 25.9721 38.9209 25.6014 38.7245 25.2727C38.5281 24.944 38.256 24.6669 37.9305 24.4644C37.346 23.9033 36.5665 23.5899 35.7556 23.5899C34.9447 23.5899 34.1653 23.9033 33.5806 24.4644C32.8932 24.981 32.2739 25.5824 31.7378 26.2546"/>
</mask>
<path fill-rule="evenodd" clip-rule="evenodd" d="M31.9038 44.1555C31.9038 44.1555 16.4632 27.7297 24.2997 22.3594C24.8454 21.9188 25.4735 21.5911 26.1475 21.3958C26.8215 21.2003 27.5277 21.1409 28.2249 21.2212C28.9221 21.3015 29.5962 21.5197 30.208 21.8631C30.8197 22.2065 31.3567 22.6682 31.7876 23.2213C32.2183 22.6731 32.7534 22.2155 33.3623 21.8751C33.9711 21.5347 34.6416 21.3181 35.3349 21.2379C36.0279 21.1578 36.7302 21.2156 37.4011 21.4082C38.0718 21.6006 38.6974 21.9239 39.2422 22.3594C47.1951 27.7297 31.9038 44.1555 31.9038 44.1555ZM31.771 26.2711C31.2784 25.6611 30.7219 25.1054 30.1108 24.6136C29.4934 24.0738 28.7079 23.7641 27.8878 23.7369C27.0675 23.7097 26.2632 23.9668 25.6114 24.4644C25.2917 24.6636 25.0241 24.9357 24.8306 25.2585C24.6372 25.5814 24.5235 25.9455 24.4989 26.3208C24.4904 26.481 24.4904 26.6414 24.4989 26.8016C24.4989 30.415 28.4338 36.2991 31.8373 40.36C35.158 36.3157 39.0595 30.415 39.0595 26.8513C39.0688 26.6856 39.0688 26.5197 39.0595 26.354C39.0357 25.9721 38.9209 25.6014 38.7245 25.2727C38.5281 24.944 38.256 24.6669 37.9305 24.4644C37.346 23.9033 36.5665 23.5899 35.7556 23.5899C34.9447 23.5899 34.1653 23.9033 33.5806 24.4644C32.8932 24.981 32.2739 25.5824 31.7378 26.2546" fill="black"/>
<path d="M31.9038 44.1555L28.2607 47.5801L31.9216 51.4746L35.5635 47.5624L31.9038 44.1555ZM24.2997 22.3594L27.1262 26.4839L27.2881 26.3729L27.4409 26.2495L24.2997 22.3594ZM26.1475 21.3958L27.5395 26.1981L27.5401 26.1979L26.1475 21.3958ZM28.2249 21.2212L28.7969 16.254L28.7968 16.254L28.2249 21.2212ZM31.7876 23.2213L27.843 26.2939L31.7707 31.3362L35.7193 26.3102L31.7876 23.2213ZM33.3623 21.8751L35.8021 26.2394L35.8027 26.2391L33.3623 21.8751ZM35.3349 21.2379L35.9093 26.2048L35.9094 26.2048L35.3349 21.2379ZM37.4011 21.4082L36.0215 26.2141L36.022 26.2142L37.4011 21.4082ZM39.2422 22.3594L36.1202 26.265L36.2774 26.3906L36.4441 26.5031L39.2422 22.3594ZM30.1108 24.6136L26.8197 28.3777L26.8963 28.4447L26.9756 28.5085L30.1108 24.6136ZM27.8878 23.7369L28.0533 18.7396L28.0533 18.7396L27.8878 23.7369ZM25.6114 24.4644L28.2551 28.7083L28.4568 28.5827L28.6456 28.4385L25.6114 24.4644ZM24.4989 26.3208L19.5096 25.9943L19.5077 26.0239L19.5061 26.0535L24.4989 26.3208ZM24.4989 26.8016H29.4989V26.6678L29.4918 26.5343L24.4989 26.8016ZM31.8373 40.36L28.0052 43.5717L31.8767 48.1911L35.7016 43.5329L31.8373 40.36ZM39.0595 26.8513L34.0673 26.5726L34.0595 26.7118V26.8513H39.0595ZM39.0595 26.354L44.0518 26.0753L44.0509 26.0592L44.0499 26.0431L39.0595 26.354ZM38.7245 25.2727L34.4322 27.8371L34.4324 27.8375L38.7245 25.2727ZM37.9305 24.4644L34.4678 28.0713L34.8454 28.4338L35.2897 28.7102L37.9305 24.4644ZM33.5806 24.4644L36.5841 28.4618L36.8252 28.2807L37.0427 28.0719L33.5806 24.4644ZM31.9038 44.1555C35.5469 40.7309 35.5476 40.7316 35.5482 40.7322C35.5483 40.7324 35.5488 40.7329 35.549 40.7332C35.5495 40.7337 35.5497 40.7339 35.5497 40.7339C35.5498 40.7339 35.5489 40.733 35.5471 40.7311C35.5435 40.7273 35.5364 40.7196 35.5258 40.7082C35.5047 40.6855 35.47 40.6478 35.4227 40.5962C35.3282 40.4928 35.184 40.3335 34.9995 40.125C34.6296 39.7073 34.1013 39.096 33.4875 38.3439C32.2456 36.822 30.7189 34.8025 29.445 32.6897C28.1157 30.4848 27.3244 28.6034 27.1261 27.2862C27.0346 26.6785 27.1106 26.4466 27.1099 26.4487C27.0821 26.5306 27.0164 26.5591 27.1262 26.4839L21.4732 18.235C17.4354 21.002 16.7093 25.2664 17.2376 28.7751C17.7304 32.0482 19.3299 35.2801 20.8812 37.853C22.4879 40.518 24.3315 42.9405 25.7398 44.6663C26.4512 45.538 27.0679 46.252 27.5119 46.7535C27.7342 47.0046 27.9141 47.2035 28.042 47.3433C28.1059 47.4133 28.1569 47.4686 28.1938 47.5083C28.2122 47.5281 28.2271 47.5441 28.2383 47.5561C28.2439 47.5621 28.2486 47.5672 28.2523 47.5712C28.2542 47.5732 28.2558 47.5749 28.2572 47.5764C28.2579 47.5772 28.2588 47.5781 28.2592 47.5785C28.26 47.5793 28.2607 47.5801 31.9038 44.1555ZM27.4409 26.2495C27.47 26.226 27.5035 26.2085 27.5395 26.1981L24.7555 16.5934C23.4435 16.9737 22.2207 17.6116 21.1585 18.4693L27.4409 26.2495ZM27.5401 26.1979C27.5769 26.1873 27.6154 26.1841 27.6531 26.1884L28.7968 16.254C27.4401 16.0978 26.0661 16.2134 24.7549 16.5936L27.5401 26.1979ZM27.653 26.1884C27.6912 26.1928 27.7277 26.2047 27.7604 26.2231L32.6556 17.5031C31.4647 16.8346 30.1529 16.4102 28.7969 16.254L27.653 26.1884ZM27.7604 26.2231C27.7932 26.2414 27.8211 26.2657 27.843 26.2939L35.7321 20.1487C34.8924 19.0707 33.8463 18.1716 32.6556 17.5031L27.7604 26.2231ZM35.7193 26.3102C35.742 26.2813 35.7701 26.2573 35.8021 26.2394L30.9225 17.5107C29.7366 18.1737 28.6946 19.0648 27.8558 20.1324L35.7193 26.3102ZM35.8027 26.2391C35.8348 26.2212 35.871 26.2093 35.9093 26.2048L34.7605 16.271C33.4122 16.427 32.1074 16.8482 30.922 17.5111L35.8027 26.2391ZM35.9094 26.2048C35.9469 26.2005 35.9851 26.2036 36.0215 26.2141L38.7806 16.6022C37.4754 16.2276 36.109 16.115 34.7603 16.2711L35.9094 26.2048ZM36.022 26.2142C36.0578 26.2245 36.0911 26.2417 36.1202 26.265L42.3642 18.4539C41.3037 17.6061 40.0857 16.9767 38.7801 16.6021L36.022 26.2142ZM36.4441 26.5031C36.5367 26.5657 36.5501 26.5928 36.5321 26.5698C36.5251 26.5608 36.5169 26.5487 36.5096 26.5353C36.5025 26.5222 36.4997 26.5144 36.5 26.5153C36.5017 26.52 36.5795 26.7512 36.4972 27.3504C36.3181 28.6543 35.5553 30.5241 34.2529 32.724C33.0052 34.8313 31.5019 36.8468 30.2765 38.3667C29.671 39.1177 29.1493 39.7279 28.7841 40.1448C28.6019 40.3529 28.4595 40.5118 28.3663 40.6149C28.3197 40.6664 28.2854 40.7038 28.2647 40.7264C28.2543 40.7377 28.2473 40.7453 28.2438 40.749C28.2421 40.7509 28.2412 40.7518 28.2413 40.7518C28.2413 40.7517 28.2416 40.7515 28.2421 40.7509C28.2423 40.7507 28.2428 40.7501 28.2429 40.75C28.2435 40.7494 28.2442 40.7487 31.9038 44.1555C35.5635 47.5624 35.5643 47.5616 35.5651 47.5607C35.5654 47.5603 35.5663 47.5594 35.567 47.5586C35.5684 47.5571 35.5701 47.5554 35.572 47.5533C35.5757 47.5493 35.5804 47.5442 35.586 47.5382C35.5971 47.5261 35.612 47.51 35.6303 47.4901C35.6669 47.4502 35.7176 47.3948 35.781 47.3247C35.9079 47.1845 36.0863 46.9852 36.3066 46.7337C36.7466 46.2313 37.3574 45.5163 38.0612 44.6435C39.4543 42.9157 41.2768 40.4891 42.8578 37.8186C44.3841 35.2408 45.9529 31.9972 46.4042 28.7109C46.89 25.1732 46.0829 20.9455 42.0403 18.2157L36.4441 26.5031ZM35.6612 23.13C34.9443 22.2422 34.1346 21.4339 33.246 20.7186L26.9756 28.5085C27.3091 28.777 27.6125 29.0799 27.8808 29.4122L35.6612 23.13ZM33.4018 20.8494C31.9153 19.5497 30.0253 18.805 28.0533 18.7396L27.7222 28.7341C27.3905 28.7231 27.0716 28.5979 26.8197 28.3777L33.4018 20.8494ZM28.0533 18.7396C26.0814 18.6743 24.1464 19.2922 22.5771 20.4904L28.6456 28.4385C28.38 28.6413 28.0537 28.7451 27.7222 28.7341L28.0533 18.7396ZM22.9676 20.2206C21.9756 20.8386 21.1436 21.684 20.5417 22.6885L29.1195 27.8286C28.9045 28.1874 28.6078 28.4886 28.2551 28.7083L22.9676 20.2206ZM20.5417 22.6885C19.94 23.6926 19.5861 24.8258 19.5096 25.9943L29.4883 26.6474C29.4609 27.0652 29.3344 27.4701 29.1195 27.8286L20.5417 22.6885ZM19.5061 26.0535C19.488 26.3918 19.488 26.7307 19.5061 27.0689L29.4918 26.5343C29.4927 26.5522 29.4927 26.5702 29.4918 26.5881L19.5061 26.0535ZM19.4989 26.8016C19.4989 30.0358 21.1099 33.4092 22.5663 35.921C24.156 38.6627 26.1728 41.3853 28.0052 43.5717L35.6694 37.1483C34.0983 35.2738 32.4459 33.0239 31.2173 30.905C30.6038 29.8469 30.1435 28.9027 29.8474 28.1147C29.7012 27.7256 29.6092 27.4119 29.5558 27.1715C29.5296 27.0535 29.5149 26.9629 29.507 26.8981C29.5031 26.8661 29.501 26.842 29.5 26.8256C29.4989 26.8091 29.4989 26.8012 29.4989 26.8016H19.4989ZM35.7016 43.5329C37.4862 41.3594 39.4669 38.642 41.0317 35.9116C42.4611 33.4177 44.0595 30.0537 44.0595 26.8513H34.0595C34.0595 26.8475 34.0597 26.8752 34.052 26.9381C34.0443 27.0007 34.0299 27.0896 34.004 27.2065C33.9512 27.4448 33.8598 27.7573 33.7144 28.1463C33.42 28.9341 32.963 29.8794 32.3556 30.9392C31.1395 33.0612 29.5091 35.3163 27.973 37.1871L35.7016 43.5329ZM44.0518 27.13C44.0714 26.7787 44.0714 26.4266 44.0518 26.0753L34.0673 26.6327C34.0662 26.6127 34.0662 26.5926 34.0673 26.5726L44.0518 27.13ZM44.0499 26.0431C43.9764 24.8647 43.6221 23.7212 43.0165 22.7079L34.4324 27.8375C34.2197 27.4816 34.095 27.0795 34.0692 26.6649L44.0499 26.0431ZM43.0167 22.7082C42.4118 21.6958 41.5735 20.8421 40.5713 20.2187L35.2897 28.7102C34.9384 28.4916 34.6444 28.1923 34.4322 27.8371L43.0167 22.7082ZM41.3932 20.8575C39.8766 19.4016 37.8559 18.5899 35.7556 18.5899V28.5899C35.277 28.5899 34.8155 28.4051 34.4678 28.0713L41.3932 20.8575ZM35.7556 18.5899C33.6548 18.5899 31.6347 19.4019 30.1185 20.857L37.0427 28.0719C36.6959 28.4048 36.2346 28.5899 35.7556 28.5899V18.5899ZM30.5772 20.467C29.5523 21.2371 28.6288 22.134 27.8289 23.1367L35.6466 29.3724C35.919 29.0309 36.234 28.7249 36.5841 28.4618L30.5772 20.467Z" fill="black" mask="url(#path-1-inside-1_234_11502)"/>
<path d="M55.8441 8.16064H8.15625V55.8396H55.8441V8.16064Z" stroke="black" stroke-width="2"/>
</svg>
