<svg width="393" height="119" viewBox="0 0 393 119" fill="none" xmlns="http://www.w3.org/2000/svg">
<g filter="url(#filter0_d_172_14266)">
<rect x="12" y="12.957" width="359" height="84" rx="8" fill="#313440"/>
<path d="M95.3184 47.957V35.0723H97.9199V40.1436H103.018V35.0723H105.619V47.957H103.018V42.3232H97.9199V47.957H95.3184ZM113.615 44.9863L116.076 45.3994C115.76 46.3018 115.259 46.9902 114.573 47.4648C113.893 47.9336 113.041 48.168 112.015 48.168C110.392 48.168 109.191 47.6377 108.412 46.5771C107.797 45.7275 107.489 44.6553 107.489 43.3604C107.489 41.8135 107.893 40.6035 108.702 39.7305C109.511 38.8516 110.533 38.4121 111.769 38.4121C113.158 38.4121 114.254 38.8721 115.056 39.792C115.859 40.7061 116.243 42.1094 116.208 44.002H110.02C110.038 44.7344 110.237 45.3057 110.618 45.7158C110.999 46.1201 111.473 46.3223 112.042 46.3223C112.429 46.3223 112.754 46.2168 113.017 46.0059C113.281 45.7949 113.48 45.4551 113.615 44.9863ZM113.756 42.4902C113.738 41.7754 113.554 41.2334 113.202 40.8643C112.85 40.4893 112.423 40.3018 111.919 40.3018C111.38 40.3018 110.934 40.498 110.583 40.8906C110.231 41.2832 110.058 41.8164 110.064 42.4902H113.756ZM118.139 47.957V35.0723H120.609V47.957H118.139ZM122.989 38.623H125.292V39.9941C125.59 39.5254 125.995 39.1445 126.504 38.8516C127.014 38.5586 127.58 38.4121 128.201 38.4121C129.285 38.4121 130.205 38.8369 130.96 39.6865C131.716 40.5361 132.094 41.7197 132.094 43.2373C132.094 44.7959 131.713 46.0088 130.952 46.876C130.19 47.7373 129.267 48.168 128.183 48.168C127.667 48.168 127.199 48.0654 126.777 47.8604C126.361 47.6553 125.921 47.3037 125.459 46.8057V51.5078H122.989V38.623ZM125.432 43.1318C125.432 44.1807 125.64 44.957 126.056 45.4609C126.472 45.959 126.979 46.208 127.577 46.208C128.151 46.208 128.628 45.9795 129.009 45.5225C129.39 45.0596 129.581 44.3037 129.581 43.2549C129.581 42.2764 129.384 41.5498 128.992 41.0752C128.599 40.6006 128.113 40.3633 127.533 40.3633C126.929 40.3633 126.428 40.5977 126.03 41.0664C125.631 41.5293 125.432 42.2178 125.432 43.1318ZM143.173 38.623V40.5918H141.486V44.3535C141.486 45.1152 141.5 45.5605 141.529 45.6895C141.565 45.8125 141.638 45.915 141.749 45.9971C141.866 46.0791 142.007 46.1201 142.171 46.1201C142.4 46.1201 142.731 46.041 143.164 45.8828L143.375 47.7988C142.801 48.0449 142.151 48.168 141.424 48.168C140.979 48.168 140.577 48.0947 140.22 47.9482C139.862 47.7959 139.599 47.6025 139.429 47.3682C139.265 47.1279 139.151 46.8057 139.086 46.4014C139.033 46.1143 139.007 45.5342 139.007 44.6611V40.5918H137.873V38.623H139.007V36.7686L141.486 35.3271V38.623H143.173ZM147.258 35.0723V39.8096C148.055 38.8779 149.007 38.4121 150.114 38.4121C150.683 38.4121 151.195 38.5176 151.652 38.7285C152.109 38.9395 152.452 39.209 152.681 39.5371C152.915 39.8652 153.073 40.2285 153.155 40.627C153.243 41.0254 153.287 41.6436 153.287 42.4814V47.957H150.817V43.0264C150.817 42.0479 150.771 41.4268 150.677 41.1631C150.583 40.8994 150.416 40.6914 150.176 40.5391C149.941 40.3809 149.646 40.3018 149.288 40.3018C148.878 40.3018 148.512 40.4014 148.189 40.6006C147.867 40.7998 147.63 41.1016 147.478 41.5059C147.331 41.9043 147.258 42.4961 147.258 43.2812V47.957H144.788V35.0723H147.258ZM161.116 44.9863L163.577 45.3994C163.261 46.3018 162.76 46.9902 162.074 47.4648C161.394 47.9336 160.542 48.168 159.516 48.168C157.893 48.168 156.692 47.6377 155.913 46.5771C155.298 45.7275 154.99 44.6553 154.99 43.3604C154.99 41.8135 155.394 40.6035 156.203 39.7305C157.012 38.8516 158.034 38.4121 159.27 38.4121C160.659 38.4121 161.755 38.8721 162.557 39.792C163.36 40.7061 163.744 42.1094 163.709 44.002H157.521C157.539 44.7344 157.738 45.3057 158.119 45.7158C158.5 46.1201 158.974 46.3223 159.543 46.3223C159.93 46.3223 160.255 46.2168 160.518 46.0059C160.782 45.7949 160.981 45.4551 161.116 44.9863ZM161.257 42.4902C161.239 41.7754 161.055 41.2334 160.703 40.8643C160.351 40.4893 159.924 40.3018 159.42 40.3018C158.881 40.3018 158.435 40.498 158.084 40.8906C157.732 41.2832 157.559 41.8164 157.565 42.4902H161.257ZM170.49 38.623H172.793V39.9941C173.091 39.5254 173.496 39.1445 174.005 38.8516C174.515 38.5586 175.081 38.4121 175.702 38.4121C176.786 38.4121 177.706 38.8369 178.461 39.6865C179.217 40.5361 179.595 41.7197 179.595 43.2373C179.595 44.7959 179.214 46.0088 178.453 46.876C177.691 47.7373 176.768 48.168 175.684 48.168C175.169 48.168 174.7 48.0654 174.278 47.8604C173.862 47.6553 173.422 47.3037 172.96 46.8057V51.5078H170.49V38.623ZM172.933 43.1318C172.933 44.1807 173.141 44.957 173.557 45.4609C173.973 45.959 174.48 46.208 175.078 46.208C175.652 46.208 176.129 45.9795 176.51 45.5225C176.891 45.0596 177.082 44.3037 177.082 43.2549C177.082 42.2764 176.885 41.5498 176.493 41.0752C176.1 40.6006 175.614 40.3633 175.034 40.3633C174.43 40.3633 173.929 40.5977 173.531 41.0664C173.132 41.5293 172.933 42.2178 172.933 43.1318ZM186.879 44.9863L189.34 45.3994C189.024 46.3018 188.523 46.9902 187.837 47.4648C187.158 47.9336 186.305 48.168 185.28 48.168C183.657 48.168 182.455 47.6377 181.676 46.5771C181.061 45.7275 180.753 44.6553 180.753 43.3604C180.753 41.8135 181.158 40.6035 181.966 39.7305C182.775 38.8516 183.797 38.4121 185.034 38.4121C186.422 38.4121 187.518 38.8721 188.321 39.792C189.123 40.7061 189.507 42.1094 189.472 44.002H183.285C183.302 44.7344 183.501 45.3057 183.882 45.7158C184.263 46.1201 184.738 46.3223 185.306 46.3223C185.693 46.3223 186.018 46.2168 186.282 46.0059C186.545 45.7949 186.745 45.4551 186.879 44.9863ZM187.02 42.4902C187.002 41.7754 186.818 41.2334 186.466 40.8643C186.115 40.4893 185.687 40.3018 185.183 40.3018C184.644 40.3018 184.199 40.498 183.847 40.8906C183.496 41.2832 183.323 41.8164 183.329 42.4902H187.02ZM190.832 43.1582C190.832 42.3379 191.034 41.5439 191.439 40.7764C191.843 40.0088 192.414 39.4229 193.153 39.0186C193.897 38.6143 194.726 38.4121 195.64 38.4121C197.052 38.4121 198.209 38.8721 199.112 39.792C200.014 40.7061 200.465 41.8633 200.465 43.2637C200.465 44.6758 200.008 45.8477 199.094 46.7793C198.186 47.7051 197.04 48.168 195.657 48.168C194.802 48.168 193.985 47.9746 193.205 47.5879C192.432 47.2012 191.843 46.6357 191.439 45.8916C191.034 45.1416 190.832 44.2305 190.832 43.1582ZM193.364 43.29C193.364 44.2158 193.583 44.9248 194.023 45.417C194.462 45.9092 195.004 46.1553 195.649 46.1553C196.293 46.1553 196.832 45.9092 197.266 45.417C197.705 44.9248 197.925 44.21 197.925 43.2725C197.925 42.3584 197.705 41.6553 197.266 41.1631C196.832 40.6709 196.293 40.4248 195.649 40.4248C195.004 40.4248 194.462 40.6709 194.023 41.1631C193.583 41.6553 193.364 42.3643 193.364 43.29ZM202.247 38.623H204.55V39.9941C204.849 39.5254 205.253 39.1445 205.763 38.8516C206.273 38.5586 206.838 38.4121 207.459 38.4121C208.543 38.4121 209.463 38.8369 210.219 39.6865C210.975 40.5361 211.353 41.7197 211.353 43.2373C211.353 44.7959 210.972 46.0088 210.21 46.876C209.448 47.7373 208.525 48.168 207.441 48.168C206.926 48.168 206.457 48.0654 206.035 47.8604C205.619 47.6553 205.18 47.3037 204.717 46.8057V51.5078H202.247V38.623ZM204.691 43.1318C204.691 44.1807 204.899 44.957 205.315 45.4609C205.731 45.959 206.237 46.208 206.835 46.208C207.409 46.208 207.887 45.9795 208.268 45.5225C208.649 45.0596 208.839 44.3037 208.839 43.2549C208.839 42.2764 208.643 41.5498 208.25 41.0752C207.857 40.6006 207.371 40.3633 206.791 40.3633C206.188 40.3633 205.687 40.5977 205.288 41.0664C204.89 41.5293 204.691 42.2178 204.691 43.1318ZM213.231 47.957V35.0723H215.701V47.957H213.231ZM223.556 44.9863L226.017 45.3994C225.701 46.3018 225.2 46.9902 224.514 47.4648C223.835 47.9336 222.982 48.168 221.957 48.168C220.334 48.168 219.133 47.6377 218.353 46.5771C217.738 45.7275 217.43 44.6553 217.43 43.3604C217.43 41.8135 217.835 40.6035 218.643 39.7305C219.452 38.8516 220.474 38.4121 221.711 38.4121C223.099 38.4121 224.195 38.8721 224.998 39.792C225.801 40.7061 226.184 42.1094 226.149 44.002H219.962C219.979 44.7344 220.178 45.3057 220.559 45.7158C220.94 46.1201 221.415 46.3223 221.983 46.3223C222.37 46.3223 222.695 46.2168 222.959 46.0059C223.222 45.7949 223.422 45.4551 223.556 44.9863ZM223.697 42.4902C223.679 41.7754 223.495 41.2334 223.143 40.8643C222.792 40.4893 222.364 40.3018 221.86 40.3018C221.321 40.3018 220.876 40.498 220.524 40.8906C220.173 41.2832 220 41.8164 220.006 42.4902H223.697ZM232.429 43.1582C232.429 42.3379 232.631 41.5439 233.036 40.7764C233.44 40.0088 234.011 39.4229 234.749 39.0186C235.494 38.6143 236.323 38.4121 237.237 38.4121C238.649 38.4121 239.806 38.8721 240.708 39.792C241.611 40.7061 242.062 41.8633 242.062 43.2637C242.062 44.6758 241.605 45.8477 240.691 46.7793C239.783 47.7051 238.637 48.168 237.254 48.168C236.399 48.168 235.581 47.9746 234.802 47.5879C234.029 47.2012 233.44 46.6357 233.036 45.8916C232.631 45.1416 232.429 44.2305 232.429 43.1582ZM234.96 43.29C234.96 44.2158 235.18 44.9248 235.62 45.417C236.059 45.9092 236.601 46.1553 237.246 46.1553C237.89 46.1553 238.429 45.9092 238.863 45.417C239.302 44.9248 239.522 44.21 239.522 43.2725C239.522 42.3584 239.302 41.6553 238.863 41.1631C238.429 40.6709 237.89 40.4248 237.246 40.4248C236.601 40.4248 236.059 40.6709 235.62 41.1631C235.18 41.6553 234.96 42.3643 234.96 43.29ZM242.833 38.623H244.204V37.9199C244.204 37.1348 244.286 36.5488 244.45 36.1621C244.62 35.7754 244.928 35.4619 245.373 35.2217C245.824 34.9756 246.393 34.8525 247.078 34.8525C247.782 34.8525 248.47 34.958 249.144 35.1689L248.81 36.8916C248.417 36.7979 248.039 36.751 247.676 36.751C247.319 36.751 247.061 36.8359 246.903 37.0059C246.75 37.1699 246.674 37.4893 246.674 37.9639V38.623H248.52V40.5654H246.674V47.957H244.204V40.5654H242.833V38.623ZM254.738 35.0723H257.34V42.0508C257.34 43.1582 257.372 43.876 257.436 44.2041C257.548 44.7314 257.811 45.1562 258.227 45.4785C258.649 45.7949 259.224 45.9531 259.95 45.9531C260.688 45.9531 261.245 45.8037 261.62 45.5049C261.995 45.2002 262.221 44.8281 262.297 44.3887C262.373 43.9492 262.411 43.2197 262.411 42.2002V35.0723H265.013V41.8398C265.013 43.3867 264.942 44.4795 264.802 45.1182C264.661 45.7568 264.4 46.2959 264.019 46.7354C263.644 47.1748 263.141 47.5264 262.508 47.79C261.875 48.0479 261.049 48.1768 260.029 48.1768C258.799 48.1768 257.864 48.0361 257.226 47.7549C256.593 47.4678 256.092 47.0986 255.723 46.6475C255.353 46.1904 255.11 45.7129 254.993 45.2148C254.823 44.4766 254.738 43.3867 254.738 41.9453V35.0723ZM267.568 47.957V35.0723H270.038V41.9102L272.929 38.623H275.971L272.78 42.0332L276.199 47.957H273.536L271.189 43.7646L270.038 44.9688V47.957H267.568ZM279.95 47.957H277.48V38.623H279.774V39.9502C280.167 39.3232 280.518 38.9102 280.829 38.7109C281.145 38.5117 281.503 38.4121 281.901 38.4121C282.464 38.4121 283.006 38.5674 283.527 38.8779L282.762 41.0312C282.346 40.7617 281.96 40.627 281.602 40.627C281.256 40.627 280.964 40.7236 280.723 40.917C280.483 41.1045 280.293 41.4473 280.152 41.9453C280.017 42.4434 279.95 43.4863 279.95 45.0742V47.957ZM286.355 41.4707L284.114 41.0664C284.366 40.1641 284.799 39.4961 285.415 39.0625C286.03 38.6289 286.944 38.4121 288.157 38.4121C289.258 38.4121 290.079 38.5439 290.618 38.8076C291.157 39.0654 291.535 39.3965 291.751 39.8008C291.974 40.1992 292.085 40.9346 292.085 42.0068L292.059 44.8896C292.059 45.71 292.097 46.3164 292.173 46.709C292.255 47.0957 292.405 47.5117 292.622 47.957H290.178C290.114 47.793 290.035 47.5498 289.941 47.2275C289.9 47.0811 289.871 46.9844 289.853 46.9375C289.431 47.3477 288.98 47.6553 288.499 47.8604C288.019 48.0654 287.506 48.168 286.961 48.168C286 48.168 285.242 47.9072 284.685 47.3857C284.134 46.8643 283.859 46.2051 283.859 45.4082C283.859 44.8809 283.985 44.4121 284.237 44.002C284.489 43.5859 284.84 43.2695 285.291 43.0527C285.749 42.8301 286.405 42.6367 287.26 42.4727C288.415 42.2559 289.214 42.0537 289.66 41.8662V41.6201C289.66 41.1455 289.542 40.8086 289.308 40.6094C289.074 40.4043 288.631 40.3018 287.981 40.3018C287.541 40.3018 287.199 40.3896 286.953 40.5654C286.707 40.7354 286.507 41.0371 286.355 41.4707ZM289.66 43.4746C289.343 43.5801 288.842 43.7061 288.157 43.8525C287.471 43.999 287.023 44.1426 286.812 44.2832C286.49 44.5117 286.329 44.8018 286.329 45.1533C286.329 45.499 286.458 45.7979 286.715 46.0498C286.973 46.3018 287.301 46.4277 287.7 46.4277C288.145 46.4277 288.57 46.2812 288.974 45.9883C289.273 45.7656 289.469 45.4932 289.563 45.1709C289.627 44.96 289.66 44.5586 289.66 43.9668V43.4746ZM294.439 37.3574V35.0723H296.909V37.3574H294.439ZM294.439 47.957V38.623H296.909V47.957H294.439ZM307.849 47.957H305.379V43.1934C305.379 42.1855 305.326 41.5352 305.221 41.2422C305.115 40.9434 304.943 40.7119 304.702 40.5479C304.468 40.3838 304.184 40.3018 303.85 40.3018C303.422 40.3018 303.038 40.4189 302.698 40.6533C302.359 40.8877 302.124 41.1982 301.995 41.585C301.872 41.9717 301.811 42.6865 301.811 43.7295V47.957H299.341V38.623H301.635V39.9941C302.449 38.9395 303.475 38.4121 304.711 38.4121C305.256 38.4121 305.754 38.5117 306.205 38.7109C306.656 38.9043 306.996 39.1533 307.225 39.458C307.459 39.7627 307.62 40.1084 307.708 40.4951C307.802 40.8818 307.849 41.4355 307.849 42.1562V47.957ZM315.678 44.9863L318.139 45.3994C317.822 46.3018 317.321 46.9902 316.636 47.4648C315.956 47.9336 315.104 48.168 314.078 48.168C312.455 48.168 311.254 47.6377 310.475 46.5771C309.859 45.7275 309.552 44.6553 309.552 43.3604C309.552 41.8135 309.956 40.6035 310.765 39.7305C311.573 38.8516 312.596 38.4121 313.832 38.4121C315.221 38.4121 316.316 38.8721 317.119 39.792C317.922 40.7061 318.306 42.1094 318.271 44.002H312.083C312.101 44.7344 312.3 45.3057 312.681 45.7158C313.062 46.1201 313.536 46.3223 314.104 46.3223C314.491 46.3223 314.816 46.2168 315.08 46.0059C315.344 45.7949 315.543 45.4551 315.678 44.9863ZM315.818 42.4902C315.801 41.7754 315.616 41.2334 315.265 40.8643C314.913 40.4893 314.485 40.3018 313.981 40.3018C313.442 40.3018 312.997 40.498 312.646 40.8906C312.294 41.2832 312.121 41.8164 312.127 42.4902H315.818ZM321.169 44.6348L320.527 38.0957V35.0723H323.199V38.0957L322.566 44.6348H321.169ZM320.633 47.957V45.4873H323.102V47.957H320.633Z" fill="white"/>
<path d="M95.2344 73.957V62.5039H99.1797C100.07 62.5039 100.75 62.5586 101.219 62.668C101.875 62.819 102.435 63.0924 102.898 63.4883C103.503 63.9987 103.953 64.6523 104.25 65.4492C104.552 66.2409 104.703 67.1471 104.703 68.168C104.703 69.0378 104.602 69.8086 104.398 70.4805C104.195 71.1523 103.935 71.7096 103.617 72.1523C103.299 72.5898 102.951 72.9362 102.57 73.1914C102.195 73.4414 101.74 73.6315 101.203 73.7617C100.672 73.8919 100.06 73.957 99.3672 73.957H95.2344ZM96.75 72.6055H99.1953C99.9505 72.6055 100.542 72.5352 100.969 72.3945C101.401 72.2539 101.745 72.056 102 71.8008C102.359 71.4414 102.638 70.9596 102.836 70.3555C103.039 69.7461 103.141 69.0091 103.141 68.1445C103.141 66.9466 102.943 66.0273 102.547 65.3867C102.156 64.7409 101.68 64.3086 101.117 64.0898C100.711 63.9336 100.057 63.8555 99.1562 63.8555H96.75V72.6055ZM106.094 69.8086C106.094 68.2721 106.521 67.1341 107.375 66.3945C108.089 65.7799 108.958 65.4727 109.984 65.4727C111.125 65.4727 112.057 65.8477 112.781 66.5977C113.505 67.3424 113.867 68.3737 113.867 69.6914C113.867 70.7591 113.706 71.6003 113.383 72.2148C113.065 72.8242 112.599 73.2982 111.984 73.6367C111.375 73.9753 110.708 74.1445 109.984 74.1445C108.823 74.1445 107.883 73.7721 107.164 73.0273C106.451 72.2826 106.094 71.2096 106.094 69.8086ZM107.539 69.8086C107.539 70.8711 107.771 71.668 108.234 72.1992C108.698 72.7253 109.281 72.9883 109.984 72.9883C110.682 72.9883 111.263 72.7227 111.727 72.1914C112.19 71.6602 112.422 70.8503 112.422 69.7617C112.422 68.7357 112.188 67.9596 111.719 67.4336C111.255 66.9023 110.677 66.6367 109.984 66.6367C109.281 66.6367 108.698 66.8997 108.234 67.4258C107.771 67.9518 107.539 68.7461 107.539 69.8086ZM115.523 73.957V65.6602H116.789V66.8398C117.398 65.9284 118.279 65.4727 119.43 65.4727C119.93 65.4727 120.388 65.5638 120.805 65.7461C121.227 65.9232 121.542 66.1576 121.75 66.4492C121.958 66.7409 122.104 67.0872 122.188 67.4883C122.24 67.7487 122.266 68.2044 122.266 68.8555V73.957H120.859V68.9102C120.859 68.3372 120.805 67.9102 120.695 67.6289C120.586 67.3424 120.391 67.1159 120.109 66.9492C119.833 66.7773 119.508 66.6914 119.133 66.6914C118.534 66.6914 118.016 66.8815 117.578 67.2617C117.146 67.6419 116.93 68.3633 116.93 69.4258V73.957H115.523ZM129.844 72.9336C129.323 73.3763 128.82 73.6888 128.336 73.8711C127.857 74.0534 127.341 74.1445 126.789 74.1445C125.878 74.1445 125.177 73.9232 124.688 73.4805C124.198 73.0326 123.953 72.4622 123.953 71.7695C123.953 71.3633 124.044 70.9935 124.227 70.6602C124.414 70.3216 124.656 70.0508 124.953 69.8477C125.255 69.6445 125.594 69.4909 125.969 69.3867C126.245 69.3138 126.661 69.2435 127.219 69.1758C128.354 69.0404 129.19 68.8789 129.727 68.6914C129.732 68.4987 129.734 68.3763 129.734 68.3242C129.734 67.7513 129.602 67.3477 129.336 67.1133C128.977 66.7956 128.443 66.6367 127.734 66.6367C127.073 66.6367 126.583 66.7539 126.266 66.9883C125.953 67.2174 125.721 67.6263 125.57 68.2148L124.195 68.0273C124.32 67.4388 124.526 66.9648 124.812 66.6055C125.099 66.2409 125.513 65.9622 126.055 65.7695C126.596 65.5716 127.224 65.4727 127.938 65.4727C128.646 65.4727 129.221 65.556 129.664 65.7227C130.107 65.8893 130.432 66.1003 130.641 66.3555C130.849 66.6055 130.995 66.9232 131.078 67.3086C131.125 67.5482 131.148 67.9805 131.148 68.6055V70.4805C131.148 71.7878 131.177 72.6159 131.234 72.9648C131.297 73.3086 131.417 73.6393 131.594 73.957H130.125C129.979 73.6654 129.885 73.3242 129.844 72.9336ZM129.727 69.793C129.216 70.0013 128.451 70.1784 127.43 70.3242C126.852 70.4076 126.443 70.5013 126.203 70.6055C125.964 70.7096 125.779 70.8633 125.648 71.0664C125.518 71.2643 125.453 71.4857 125.453 71.7305C125.453 72.1055 125.594 72.418 125.875 72.668C126.161 72.918 126.578 73.043 127.125 73.043C127.667 73.043 128.148 72.9258 128.57 72.6914C128.992 72.4518 129.302 72.1263 129.5 71.7148C129.651 71.3971 129.727 70.9284 129.727 70.3086V69.793ZM136.406 72.6992L136.609 73.9414C136.214 74.0247 135.859 74.0664 135.547 74.0664C135.036 74.0664 134.641 73.9857 134.359 73.8242C134.078 73.6628 133.88 73.4518 133.766 73.1914C133.651 72.9258 133.594 72.3711 133.594 71.5273V66.7539H132.562V65.6602H133.594V63.6055L134.992 62.7617V65.6602H136.406V66.7539H134.992V71.6055C134.992 72.0065 135.016 72.2643 135.062 72.3789C135.115 72.4935 135.195 72.5846 135.305 72.6523C135.419 72.7201 135.581 72.7539 135.789 72.7539C135.945 72.7539 136.151 72.7357 136.406 72.6992ZM143.469 71.2852L144.922 71.4648C144.693 72.3138 144.268 72.9727 143.648 73.4414C143.029 73.9102 142.237 74.1445 141.273 74.1445C140.06 74.1445 139.096 73.7721 138.383 73.0273C137.674 72.2773 137.32 71.2279 137.32 69.8789C137.32 68.4831 137.68 67.3997 138.398 66.6289C139.117 65.8581 140.049 65.4727 141.195 65.4727C142.305 65.4727 143.211 65.8503 143.914 66.6055C144.617 67.3607 144.969 68.4232 144.969 69.793C144.969 69.8763 144.966 70.0013 144.961 70.168H138.773C138.826 71.0794 139.083 71.7773 139.547 72.2617C140.01 72.7461 140.589 72.9883 141.281 72.9883C141.797 72.9883 142.237 72.8529 142.602 72.582C142.966 72.3112 143.255 71.8789 143.469 71.2852ZM138.852 69.0117H143.484C143.422 68.3138 143.245 67.7904 142.953 67.4414C142.505 66.8997 141.924 66.6289 141.211 66.6289C140.565 66.6289 140.021 66.8451 139.578 67.2773C139.141 67.7096 138.898 68.2878 138.852 69.0117ZM154.219 72.6992L154.422 73.9414C154.026 74.0247 153.672 74.0664 153.359 74.0664C152.849 74.0664 152.453 73.9857 152.172 73.8242C151.891 73.6628 151.693 73.4518 151.578 73.1914C151.464 72.9258 151.406 72.3711 151.406 71.5273V66.7539H150.375V65.6602H151.406V63.6055L152.805 62.7617V65.6602H154.219V66.7539H152.805V71.6055C152.805 72.0065 152.828 72.2643 152.875 72.3789C152.927 72.4935 153.008 72.5846 153.117 72.6523C153.232 72.7201 153.393 72.7539 153.602 72.7539C153.758 72.7539 153.964 72.7357 154.219 72.6992ZM155.078 69.8086C155.078 68.2721 155.505 67.1341 156.359 66.3945C157.073 65.7799 157.943 65.4727 158.969 65.4727C160.109 65.4727 161.042 65.8477 161.766 66.5977C162.49 67.3424 162.852 68.3737 162.852 69.6914C162.852 70.7591 162.69 71.6003 162.367 72.2148C162.049 72.8242 161.583 73.2982 160.969 73.6367C160.359 73.9753 159.693 74.1445 158.969 74.1445C157.807 74.1445 156.867 73.7721 156.148 73.0273C155.435 72.2826 155.078 71.2096 155.078 69.8086ZM156.523 69.8086C156.523 70.8711 156.755 71.668 157.219 72.1992C157.682 72.7253 158.266 72.9883 158.969 72.9883C159.667 72.9883 160.247 72.7227 160.711 72.1914C161.174 71.6602 161.406 70.8503 161.406 69.7617C161.406 68.7357 161.172 67.9596 160.703 67.4336C160.24 66.9023 159.661 66.6367 158.969 66.6367C158.266 66.6367 157.682 66.8997 157.219 67.4258C156.755 67.9518 156.523 68.7461 156.523 69.8086ZM172.031 72.6992L172.234 73.9414C171.839 74.0247 171.484 74.0664 171.172 74.0664C170.661 74.0664 170.266 73.9857 169.984 73.8242C169.703 73.6628 169.505 73.4518 169.391 73.1914C169.276 72.9258 169.219 72.3711 169.219 71.5273V66.7539H168.188V65.6602H169.219V63.6055L170.617 62.7617V65.6602H172.031V66.7539H170.617V71.6055C170.617 72.0065 170.641 72.2643 170.688 72.3789C170.74 72.4935 170.82 72.5846 170.93 72.6523C171.044 72.7201 171.206 72.7539 171.414 72.7539C171.57 72.7539 171.776 72.7357 172.031 72.6992ZM173.414 73.957V62.5039H174.82V66.6133C175.477 65.8529 176.305 65.4727 177.305 65.4727C177.919 65.4727 178.453 65.5951 178.906 65.8398C179.359 66.0794 179.682 66.4128 179.875 66.8398C180.073 67.2669 180.172 67.8867 180.172 68.6992V73.957H178.766V68.6992C178.766 67.9961 178.612 67.4857 178.305 67.168C178.003 66.8451 177.573 66.6836 177.016 66.6836C176.599 66.6836 176.206 66.793 175.836 67.0117C175.471 67.2253 175.211 67.5169 175.055 67.8867C174.898 68.2565 174.82 68.7669 174.82 69.418V73.957H173.414ZM188 71.2852L189.453 71.4648C189.224 72.3138 188.799 72.9727 188.18 73.4414C187.56 73.9102 186.768 74.1445 185.805 74.1445C184.591 74.1445 183.628 73.7721 182.914 73.0273C182.206 72.2773 181.852 71.2279 181.852 69.8789C181.852 68.4831 182.211 67.3997 182.93 66.6289C183.648 65.8581 184.581 65.4727 185.727 65.4727C186.836 65.4727 187.742 65.8503 188.445 66.6055C189.148 67.3607 189.5 68.4232 189.5 69.793C189.5 69.8763 189.497 70.0013 189.492 70.168H183.305C183.357 71.0794 183.615 71.7773 184.078 72.2617C184.542 72.7461 185.12 72.9883 185.812 72.9883C186.328 72.9883 186.768 72.8529 187.133 72.582C187.497 72.3112 187.786 71.8789 188 71.2852ZM183.383 69.0117H188.016C187.953 68.3138 187.776 67.7904 187.484 67.4414C187.036 66.8997 186.456 66.6289 185.742 66.6289C185.096 66.6289 184.552 66.8451 184.109 67.2773C183.672 67.7096 183.43 68.2878 183.383 69.0117ZM198.75 72.6992L198.953 73.9414C198.557 74.0247 198.203 74.0664 197.891 74.0664C197.38 74.0664 196.984 73.9857 196.703 73.8242C196.422 73.6628 196.224 73.4518 196.109 73.1914C195.995 72.9258 195.938 72.3711 195.938 71.5273V66.7539H194.906V65.6602H195.938V63.6055L197.336 62.7617V65.6602H198.75V66.7539H197.336V71.6055C197.336 72.0065 197.359 72.2643 197.406 72.3789C197.458 72.4935 197.539 72.5846 197.648 72.6523C197.763 72.7201 197.924 72.7539 198.133 72.7539C198.289 72.7539 198.495 72.7357 198.75 72.6992ZM200.117 73.957V65.6602H201.383V66.918C201.706 66.3294 202.003 65.9414 202.273 65.7539C202.549 65.5664 202.852 65.4727 203.18 65.4727C203.654 65.4727 204.135 65.6237 204.625 65.9258L204.141 67.2305C203.797 67.0273 203.453 66.9258 203.109 66.9258C202.802 66.9258 202.526 67.0195 202.281 67.207C202.036 67.3893 201.862 67.6445 201.758 67.9727C201.602 68.4727 201.523 69.0195 201.523 69.6133V73.957H200.117ZM210.898 73.957V72.7383C210.253 73.6758 209.375 74.1445 208.266 74.1445C207.776 74.1445 207.318 74.0508 206.891 73.8633C206.469 73.6758 206.154 73.4414 205.945 73.1602C205.742 72.8737 205.599 72.5247 205.516 72.1133C205.458 71.8372 205.43 71.3997 205.43 70.8008V65.6602H206.836V70.2617C206.836 70.9961 206.865 71.4909 206.922 71.7461C207.01 72.1159 207.198 72.4076 207.484 72.6211C207.771 72.8294 208.125 72.9336 208.547 72.9336C208.969 72.9336 209.365 72.8268 209.734 72.6133C210.104 72.3945 210.365 72.1003 210.516 71.7305C210.672 71.3555 210.75 70.8138 210.75 70.1055V65.6602H212.156V73.957H210.898ZM213.805 71.4805L215.195 71.2617C215.273 71.819 215.49 72.2461 215.844 72.543C216.203 72.8398 216.703 72.9883 217.344 72.9883C217.99 72.9883 218.469 72.8581 218.781 72.5977C219.094 72.332 219.25 72.0221 219.25 71.668C219.25 71.3503 219.112 71.1003 218.836 70.918C218.643 70.793 218.164 70.6341 217.398 70.4414C216.367 70.181 215.651 69.957 215.25 69.7695C214.854 69.5768 214.552 69.3138 214.344 68.9805C214.141 68.6419 214.039 68.2695 214.039 67.8633C214.039 67.4935 214.122 67.1523 214.289 66.8398C214.461 66.5221 214.693 66.2591 214.984 66.0508C215.203 65.8893 215.5 65.7539 215.875 65.6445C216.255 65.5299 216.661 65.4727 217.094 65.4727C217.745 65.4727 218.315 65.5664 218.805 65.7539C219.299 65.9414 219.664 66.1966 219.898 66.5195C220.133 66.8372 220.294 67.2643 220.383 67.8008L219.008 67.9883C218.945 67.5612 218.763 67.2279 218.461 66.9883C218.164 66.7487 217.742 66.6289 217.195 66.6289C216.549 66.6289 216.089 66.7357 215.812 66.9492C215.536 67.1628 215.398 67.4128 215.398 67.6992C215.398 67.8815 215.456 68.0456 215.57 68.1914C215.685 68.3424 215.865 68.4674 216.109 68.5664C216.25 68.6185 216.664 68.7383 217.352 68.9258C218.346 69.1914 219.039 69.4102 219.43 69.582C219.826 69.7487 220.135 69.9935 220.359 70.3164C220.583 70.6393 220.695 71.0404 220.695 71.5195C220.695 71.9883 220.557 72.431 220.281 72.8477C220.01 73.2591 219.617 73.5794 219.102 73.8086C218.586 74.0326 218.003 74.1445 217.352 74.1445C216.273 74.1445 215.451 73.9206 214.883 73.4727C214.32 73.0247 213.961 72.3607 213.805 71.4805ZM225.438 72.6992L225.641 73.9414C225.245 74.0247 224.891 74.0664 224.578 74.0664C224.068 74.0664 223.672 73.9857 223.391 73.8242C223.109 73.6628 222.911 73.4518 222.797 73.1914C222.682 72.9258 222.625 72.3711 222.625 71.5273V66.7539H221.594V65.6602H222.625V63.6055L224.023 62.7617V65.6602H225.438V66.7539H224.023V71.6055C224.023 72.0065 224.047 72.2643 224.094 72.3789C224.146 72.4935 224.227 72.5846 224.336 72.6523C224.451 72.7201 224.612 72.7539 224.82 72.7539C224.977 72.7539 225.182 72.7357 225.438 72.6992ZM232.5 71.2852L233.953 71.4648C233.724 72.3138 233.299 72.9727 232.68 73.4414C232.06 73.9102 231.268 74.1445 230.305 74.1445C229.091 74.1445 228.128 73.7721 227.414 73.0273C226.706 72.2773 226.352 71.2279 226.352 69.8789C226.352 68.4831 226.711 67.3997 227.43 66.6289C228.148 65.8581 229.081 65.4727 230.227 65.4727C231.336 65.4727 232.242 65.8503 232.945 66.6055C233.648 67.3607 234 68.4232 234 69.793C234 69.8763 233.997 70.0013 233.992 70.168H227.805C227.857 71.0794 228.115 71.7773 228.578 72.2617C229.042 72.7461 229.62 72.9883 230.312 72.9883C230.828 72.9883 231.268 72.8529 231.633 72.582C231.997 72.3112 232.286 71.8789 232.5 71.2852ZM227.883 69.0117H232.516C232.453 68.3138 232.276 67.7904 231.984 67.4414C231.536 66.8997 230.956 66.6289 230.242 66.6289C229.596 66.6289 229.052 66.8451 228.609 67.2773C228.172 67.7096 227.93 68.2878 227.883 69.0117ZM241.109 73.957V72.9102C240.583 73.7331 239.81 74.1445 238.789 74.1445C238.128 74.1445 237.518 73.9622 236.961 73.5977C236.409 73.2331 235.979 72.7253 235.672 72.0742C235.37 71.418 235.219 70.6654 235.219 69.8164C235.219 68.9883 235.357 68.2383 235.633 67.5664C235.909 66.8893 236.323 66.3711 236.875 66.0117C237.427 65.6523 238.044 65.4727 238.727 65.4727C239.227 65.4727 239.672 65.5794 240.062 65.793C240.453 66.0013 240.771 66.2747 241.016 66.6133V62.5039H242.414V73.957H241.109ZM236.664 69.8164C236.664 70.8789 236.888 71.6732 237.336 72.1992C237.784 72.7253 238.312 72.9883 238.922 72.9883C239.536 72.9883 240.057 72.7383 240.484 72.2383C240.917 71.7331 241.133 70.9648 241.133 69.9336C241.133 68.7982 240.914 67.9648 240.477 67.4336C240.039 66.9023 239.5 66.6367 238.859 66.6367C238.234 66.6367 237.711 66.8919 237.289 67.4023C236.872 67.9128 236.664 68.7174 236.664 69.8164ZM249.422 73.957V66.7539H248.18V65.6602H249.422V64.7773C249.422 64.2201 249.471 63.806 249.57 63.5352C249.706 63.1706 249.943 62.8763 250.281 62.6523C250.625 62.4232 251.104 62.3086 251.719 62.3086C252.115 62.3086 252.552 62.3555 253.031 62.4492L252.82 63.6758C252.529 63.6237 252.253 63.5977 251.992 63.5977C251.565 63.5977 251.263 63.6888 251.086 63.8711C250.909 64.0534 250.82 64.3945 250.82 64.8945V65.6602H252.438V66.7539H250.82V73.957H249.422ZM258.977 73.957V72.7383C258.331 73.6758 257.453 74.1445 256.344 74.1445C255.854 74.1445 255.396 74.0508 254.969 73.8633C254.547 73.6758 254.232 73.4414 254.023 73.1602C253.82 72.8737 253.677 72.5247 253.594 72.1133C253.536 71.8372 253.508 71.3997 253.508 70.8008V65.6602H254.914V70.2617C254.914 70.9961 254.943 71.4909 255 71.7461C255.089 72.1159 255.276 72.4076 255.562 72.6211C255.849 72.8294 256.203 72.9336 256.625 72.9336C257.047 72.9336 257.443 72.8268 257.812 72.6133C258.182 72.3945 258.443 72.1003 258.594 71.7305C258.75 71.3555 258.828 70.8138 258.828 70.1055V65.6602H260.234V73.957H258.977ZM262.445 73.957V65.6602H263.711V66.8398C264.32 65.9284 265.201 65.4727 266.352 65.4727C266.852 65.4727 267.31 65.5638 267.727 65.7461C268.148 65.9232 268.464 66.1576 268.672 66.4492C268.88 66.7409 269.026 67.0872 269.109 67.4883C269.161 67.7487 269.188 68.2044 269.188 68.8555V73.957H267.781V68.9102C267.781 68.3372 267.727 67.9102 267.617 67.6289C267.508 67.3424 267.312 67.1159 267.031 66.9492C266.755 66.7773 266.43 66.6914 266.055 66.6914C265.456 66.6914 264.938 66.8815 264.5 67.2617C264.068 67.6419 263.852 68.3633 263.852 69.4258V73.957H262.445ZM276.734 73.957V72.9102C276.208 73.7331 275.435 74.1445 274.414 74.1445C273.753 74.1445 273.143 73.9622 272.586 73.5977C272.034 73.2331 271.604 72.7253 271.297 72.0742C270.995 71.418 270.844 70.6654 270.844 69.8164C270.844 68.9883 270.982 68.2383 271.258 67.5664C271.534 66.8893 271.948 66.3711 272.5 66.0117C273.052 65.6523 273.669 65.4727 274.352 65.4727C274.852 65.4727 275.297 65.5794 275.688 65.793C276.078 66.0013 276.396 66.2747 276.641 66.6133V62.5039H278.039V73.957H276.734ZM272.289 69.8164C272.289 70.8789 272.513 71.6732 272.961 72.1992C273.409 72.7253 273.938 72.9883 274.547 72.9883C275.161 72.9883 275.682 72.7383 276.109 72.2383C276.542 71.7331 276.758 70.9648 276.758 69.9336C276.758 68.7982 276.539 67.9648 276.102 67.4336C275.664 66.9023 275.125 66.6367 274.484 66.6367C273.859 66.6367 273.336 66.8919 272.914 67.4023C272.497 67.9128 272.289 68.7174 272.289 69.8164ZM279.695 71.4805L281.086 71.2617C281.164 71.819 281.38 72.2461 281.734 72.543C282.094 72.8398 282.594 72.9883 283.234 72.9883C283.88 72.9883 284.359 72.8581 284.672 72.5977C284.984 72.332 285.141 72.0221 285.141 71.668C285.141 71.3503 285.003 71.1003 284.727 70.918C284.534 70.793 284.055 70.6341 283.289 70.4414C282.258 70.181 281.542 69.957 281.141 69.7695C280.745 69.5768 280.443 69.3138 280.234 68.9805C280.031 68.6419 279.93 68.2695 279.93 67.8633C279.93 67.4935 280.013 67.1523 280.18 66.8398C280.352 66.5221 280.583 66.2591 280.875 66.0508C281.094 65.8893 281.391 65.7539 281.766 65.6445C282.146 65.5299 282.552 65.4727 282.984 65.4727C283.635 65.4727 284.206 65.5664 284.695 65.7539C285.19 65.9414 285.555 66.1966 285.789 66.5195C286.023 66.8372 286.185 67.2643 286.273 67.8008L284.898 67.9883C284.836 67.5612 284.654 67.2279 284.352 66.9883C284.055 66.7487 283.633 66.6289 283.086 66.6289C282.44 66.6289 281.979 66.7357 281.703 66.9492C281.427 67.1628 281.289 67.4128 281.289 67.6992C281.289 67.8815 281.346 68.0456 281.461 68.1914C281.576 68.3424 281.755 68.4674 282 68.5664C282.141 68.6185 282.555 68.7383 283.242 68.9258C284.237 69.1914 284.93 69.4102 285.32 69.582C285.716 69.7487 286.026 69.9935 286.25 70.3164C286.474 70.6393 286.586 71.0404 286.586 71.5195C286.586 71.9883 286.448 72.431 286.172 72.8477C285.901 73.2591 285.508 73.5794 284.992 73.8086C284.477 74.0326 283.893 74.1445 283.242 74.1445C282.164 74.1445 281.341 73.9206 280.773 73.4727C280.211 73.0247 279.852 72.3607 279.695 71.4805Z" fill="white"/>
<path d="M295.333 69.6238H302.78L299.527 72.8772C299.267 73.1372 299.267 73.5638 299.527 73.8238C299.787 74.0838 300.207 74.0838 300.467 73.8238L304.86 69.4305C305.12 69.1705 305.12 68.7505 304.86 68.4905L300.473 64.0905C300.213 63.8305 299.793 63.8305 299.533 64.0905C299.273 64.3505 299.273 64.7705 299.533 65.0305L302.78 68.2905H295.333C294.967 68.2905 294.667 68.5905 294.667 68.9572C294.667 69.3238 294.967 69.6238 295.333 69.6238Z" fill="white"/>
<g clip-path="url(#clip0_172_14266)">
<rect x="26" y="26.957" width="56" height="56" rx="28" fill="#FFD500"/>
<rect x="15" y="12.957" width="75" height="42" fill="#005BBB"/>
</g>
<rect x="27.5" y="28.457" width="53" height="53" rx="26.5" stroke="white" stroke-width="3"/>
<rect x="357" y="2.95703" width="24" height="24" rx="12" fill="white"/>
<path fill-rule="evenodd" clip-rule="evenodd" d="M364.446 10.4035C364.902 9.9482 365.638 9.9482 366.094 10.4035L369 13.3103L371.906 10.4101C372.362 9.95522 373.098 9.95498 373.554 10.4101C374.002 10.8587 374.002 11.602 373.554 12.0506L370.647 14.957L373.554 17.8635C374.009 18.3187 374.009 19.0553 373.554 19.5106C373.098 19.9658 372.362 19.9658 371.906 19.5106L369 16.6041L366.094 19.5106C365.638 19.9658 364.902 19.9658 364.446 19.5106C363.991 19.0553 363.991 18.3187 364.446 17.8635L367.353 14.957L364.446 12.0506C363.991 11.5953 363.991 10.8587 364.446 10.4035Z" fill="#313440"/>
</g>
<defs>
<filter id="filter0_d_172_14266" x="0" y="0.957031" width="393" height="118" filterUnits="userSpaceOnUse" color-interpolation-filters="sRGB">
<feFlood flood-opacity="0" result="BackgroundImageFix"/>
<feColorMatrix in="SourceAlpha" type="matrix" values="0 0 0 0 0 0 0 0 0 0 0 0 0 0 0 0 0 0 127 0" result="hardAlpha"/>
<feOffset dy="10"/>
<feGaussianBlur stdDeviation="6"/>
<feComposite in2="hardAlpha" operator="out"/>
<feColorMatrix type="matrix" values="0 0 0 0 0.119844 0 0 0 0 0.147144 0 0 0 0 0.1625 0 0 0 0.16 0"/>
<feBlend mode="normal" in2="BackgroundImageFix" result="effect1_dropShadow_172_14266"/>
<feBlend mode="normal" in="SourceGraphic" in2="effect1_dropShadow_172_14266" result="shape"/>
</filter>
<clipPath id="clip0_172_14266">
<rect x="26" y="26.957" width="56" height="56" rx="28" fill="white"/>
</clipPath>
</defs>
</svg>
