<svg width="393" height="119" viewBox="0 0 393 119" fill="none" xmlns="http://www.w3.org/2000/svg">
	<g filter="url(#filter0_d_172_14199)">
		<rect x="12" y="12.957" width="359" height="84" rx="8" fill="#005BBB" />
		<path
			d="M95.3184 48V35.1152H97.9199V40.1865H103.018V35.1152H105.619V48H103.018V42.3662H97.9199V48H95.3184ZM113.615 45.0293L116.076 45.4424C115.76 46.3447 115.259 47.0332 114.573 47.5078C113.893 47.9766 113.041 48.2109 112.015 48.2109C110.392 48.2109 109.191 47.6807 108.412 46.6201C107.797 45.7705 107.489 44.6982 107.489 43.4033C107.489 41.8564 107.893 40.6465 108.702 39.7734C109.511 38.8945 110.533 38.4551 111.769 38.4551C113.158 38.4551 114.254 38.915 115.056 39.835C115.859 40.749 116.243 42.1523 116.208 44.0449H110.02C110.038 44.7773 110.237 45.3486 110.618 45.7588C110.999 46.1631 111.473 46.3652 112.042 46.3652C112.429 46.3652 112.754 46.2598 113.017 46.0488C113.281 45.8379 113.48 45.498 113.615 45.0293ZM113.756 42.5332C113.738 41.8184 113.554 41.2764 113.202 40.9072C112.85 40.5322 112.423 40.3447 111.919 40.3447C111.38 40.3447 110.934 40.541 110.583 40.9336C110.231 41.3262 110.058 41.8594 110.064 42.5332H113.756ZM118.139 48V35.1152H120.609V48H118.139ZM122.989 38.666H125.292V40.0371C125.59 39.5684 125.995 39.1875 126.504 38.8945C127.014 38.6016 127.58 38.4551 128.201 38.4551C129.285 38.4551 130.205 38.8799 130.96 39.7295C131.716 40.5791 132.094 41.7627 132.094 43.2803C132.094 44.8389 131.713 46.0518 130.952 46.9189C130.19 47.7803 129.267 48.2109 128.183 48.2109C127.667 48.2109 127.199 48.1084 126.777 47.9033C126.361 47.6982 125.921 47.3467 125.459 46.8486V51.5508H122.989V38.666ZM125.432 43.1748C125.432 44.2236 125.64 45 126.056 45.5039C126.472 46.002 126.979 46.251 127.577 46.251C128.151 46.251 128.628 46.0225 129.009 45.5654C129.39 45.1025 129.581 44.3467 129.581 43.2979C129.581 42.3193 129.384 41.5928 128.992 41.1182C128.599 40.6436 128.113 40.4062 127.533 40.4062C126.929 40.4062 126.428 40.6406 126.03 41.1094C125.631 41.5723 125.432 42.2607 125.432 43.1748ZM143.173 38.666V40.6348H141.486V44.3965C141.486 45.1582 141.5 45.6035 141.529 45.7324C141.565 45.8555 141.638 45.958 141.749 46.04C141.866 46.1221 142.007 46.1631 142.171 46.1631C142.4 46.1631 142.731 46.084 143.164 45.9258L143.375 47.8418C142.801 48.0879 142.151 48.2109 141.424 48.2109C140.979 48.2109 140.577 48.1377 140.22 47.9912C139.862 47.8389 139.599 47.6455 139.429 47.4111C139.265 47.1709 139.151 46.8486 139.086 46.4443C139.033 46.1572 139.007 45.5771 139.007 44.7041V40.6348H137.873V38.666H139.007V36.8115L141.486 35.3701V38.666H143.173ZM147.258 35.1152V39.8525C148.055 38.9209 149.007 38.4551 150.114 38.4551C150.683 38.4551 151.195 38.5605 151.652 38.7715C152.109 38.9824 152.452 39.252 152.681 39.5801C152.915 39.9082 153.073 40.2715 153.155 40.6699C153.243 41.0684 153.287 41.6865 153.287 42.5244V48H150.817V43.0693C150.817 42.0908 150.771 41.4697 150.677 41.2061C150.583 40.9424 150.416 40.7344 150.176 40.582C149.941 40.4238 149.646 40.3447 149.288 40.3447C148.878 40.3447 148.512 40.4443 148.189 40.6436C147.867 40.8428 147.63 41.1445 147.478 41.5488C147.331 41.9473 147.258 42.5391 147.258 43.3242V48H144.788V35.1152H147.258ZM161.116 45.0293L163.577 45.4424C163.261 46.3447 162.76 47.0332 162.074 47.5078C161.394 47.9766 160.542 48.2109 159.516 48.2109C157.893 48.2109 156.692 47.6807 155.913 46.6201C155.298 45.7705 154.99 44.6982 154.99 43.4033C154.99 41.8564 155.394 40.6465 156.203 39.7734C157.012 38.8945 158.034 38.4551 159.27 38.4551C160.659 38.4551 161.755 38.915 162.557 39.835C163.36 40.749 163.744 42.1523 163.709 44.0449H157.521C157.539 44.7773 157.738 45.3486 158.119 45.7588C158.5 46.1631 158.974 46.3652 159.543 46.3652C159.93 46.3652 160.255 46.2598 160.518 46.0488C160.782 45.8379 160.981 45.498 161.116 45.0293ZM161.257 42.5332C161.239 41.8184 161.055 41.2764 160.703 40.9072C160.351 40.5322 159.924 40.3447 159.42 40.3447C158.881 40.3447 158.435 40.541 158.084 40.9336C157.732 41.3262 157.559 41.8594 157.565 42.5332H161.257ZM170.49 38.666H172.793V40.0371C173.091 39.5684 173.496 39.1875 174.005 38.8945C174.515 38.6016 175.081 38.4551 175.702 38.4551C176.786 38.4551 177.706 38.8799 178.461 39.7295C179.217 40.5791 179.595 41.7627 179.595 43.2803C179.595 44.8389 179.214 46.0518 178.453 46.9189C177.691 47.7803 176.768 48.2109 175.684 48.2109C175.169 48.2109 174.7 48.1084 174.278 47.9033C173.862 47.6982 173.422 47.3467 172.96 46.8486V51.5508H170.49V38.666ZM172.933 43.1748C172.933 44.2236 173.141 45 173.557 45.5039C173.973 46.002 174.48 46.251 175.078 46.251C175.652 46.251 176.129 46.0225 176.51 45.5654C176.891 45.1025 177.082 44.3467 177.082 43.2979C177.082 42.3193 176.885 41.5928 176.493 41.1182C176.1 40.6436 175.614 40.4062 175.034 40.4062C174.43 40.4062 173.929 40.6406 173.531 41.1094C173.132 41.5723 172.933 42.2607 172.933 43.1748ZM186.879 45.0293L189.34 45.4424C189.024 46.3447 188.523 47.0332 187.837 47.5078C187.158 47.9766 186.305 48.2109 185.28 48.2109C183.657 48.2109 182.455 47.6807 181.676 46.6201C181.061 45.7705 180.753 44.6982 180.753 43.4033C180.753 41.8564 181.158 40.6465 181.966 39.7734C182.775 38.8945 183.797 38.4551 185.034 38.4551C186.422 38.4551 187.518 38.915 188.321 39.835C189.123 40.749 189.507 42.1523 189.472 44.0449H183.285C183.302 44.7773 183.501 45.3486 183.882 45.7588C184.263 46.1631 184.738 46.3652 185.306 46.3652C185.693 46.3652 186.018 46.2598 186.282 46.0488C186.545 45.8379 186.745 45.498 186.879 45.0293ZM187.02 42.5332C187.002 41.8184 186.818 41.2764 186.466 40.9072C186.115 40.5322 185.687 40.3447 185.183 40.3447C184.644 40.3447 184.199 40.541 183.847 40.9336C183.496 41.3262 183.323 41.8594 183.329 42.5332H187.02ZM190.832 43.2012C190.832 42.3809 191.034 41.5869 191.439 40.8193C191.843 40.0518 192.414 39.4658 193.153 39.0615C193.897 38.6572 194.726 38.4551 195.64 38.4551C197.052 38.4551 198.209 38.915 199.112 39.835C200.014 40.749 200.465 41.9062 200.465 43.3066C200.465 44.7188 200.008 45.8906 199.094 46.8223C198.186 47.748 197.04 48.2109 195.657 48.2109C194.802 48.2109 193.985 48.0176 193.205 47.6309C192.432 47.2441 191.843 46.6787 191.439 45.9346C191.034 45.1846 190.832 44.2734 190.832 43.2012ZM193.364 43.333C193.364 44.2588 193.583 44.9678 194.023 45.46C194.462 45.9521 195.004 46.1982 195.649 46.1982C196.293 46.1982 196.832 45.9521 197.266 45.46C197.705 44.9678 197.925 44.2529 197.925 43.3154C197.925 42.4014 197.705 41.6982 197.266 41.2061C196.832 40.7139 196.293 40.4678 195.649 40.4678C195.004 40.4678 194.462 40.7139 194.023 41.2061C193.583 41.6982 193.364 42.4072 193.364 43.333ZM202.247 38.666H204.55V40.0371C204.849 39.5684 205.253 39.1875 205.763 38.8945C206.273 38.6016 206.838 38.4551 207.459 38.4551C208.543 38.4551 209.463 38.8799 210.219 39.7295C210.975 40.5791 211.353 41.7627 211.353 43.2803C211.353 44.8389 210.972 46.0518 210.21 46.9189C209.448 47.7803 208.525 48.2109 207.441 48.2109C206.926 48.2109 206.457 48.1084 206.035 47.9033C205.619 47.6982 205.18 47.3467 204.717 46.8486V51.5508H202.247V38.666ZM204.691 43.1748C204.691 44.2236 204.899 45 205.315 45.5039C205.731 46.002 206.237 46.251 206.835 46.251C207.409 46.251 207.887 46.0225 208.268 45.5654C208.649 45.1025 208.839 44.3467 208.839 43.2979C208.839 42.3193 208.643 41.5928 208.25 41.1182C207.857 40.6436 207.371 40.4062 206.791 40.4062C206.188 40.4062 205.687 40.6406 205.288 41.1094C204.89 41.5723 204.691 42.2607 204.691 43.1748ZM213.231 48V35.1152H215.701V48H213.231ZM223.556 45.0293L226.017 45.4424C225.701 46.3447 225.2 47.0332 224.514 47.5078C223.835 47.9766 222.982 48.2109 221.957 48.2109C220.334 48.2109 219.133 47.6807 218.353 46.6201C217.738 45.7705 217.43 44.6982 217.43 43.4033C217.43 41.8564 217.835 40.6465 218.643 39.7734C219.452 38.8945 220.474 38.4551 221.711 38.4551C223.099 38.4551 224.195 38.915 224.998 39.835C225.801 40.749 226.184 42.1523 226.149 44.0449H219.962C219.979 44.7773 220.178 45.3486 220.559 45.7588C220.94 46.1631 221.415 46.3652 221.983 46.3652C222.37 46.3652 222.695 46.2598 222.959 46.0488C223.222 45.8379 223.422 45.498 223.556 45.0293ZM223.697 42.5332C223.679 41.8184 223.495 41.2764 223.143 40.9072C222.792 40.5322 222.364 40.3447 221.86 40.3447C221.321 40.3447 220.876 40.541 220.524 40.9336C220.173 41.3262 220 41.8594 220.006 42.5332H223.697ZM232.429 43.2012C232.429 42.3809 232.631 41.5869 233.036 40.8193C233.44 40.0518 234.011 39.4658 234.749 39.0615C235.494 38.6572 236.323 38.4551 237.237 38.4551C238.649 38.4551 239.806 38.915 240.708 39.835C241.611 40.749 242.062 41.9062 242.062 43.3066C242.062 44.7188 241.605 45.8906 240.691 46.8223C239.783 47.748 238.637 48.2109 237.254 48.2109C236.399 48.2109 235.581 48.0176 234.802 47.6309C234.029 47.2441 233.44 46.6787 233.036 45.9346C232.631 45.1846 232.429 44.2734 232.429 43.2012ZM234.96 43.333C234.96 44.2588 235.18 44.9678 235.62 45.46C236.059 45.9521 236.601 46.1982 237.246 46.1982C237.89 46.1982 238.429 45.9521 238.863 45.46C239.302 44.9678 239.522 44.2529 239.522 43.3154C239.522 42.4014 239.302 41.6982 238.863 41.2061C238.429 40.7139 237.89 40.4678 237.246 40.4678C236.601 40.4678 236.059 40.7139 235.62 41.2061C235.18 41.6982 234.96 42.4072 234.96 43.333ZM242.833 38.666H244.204V37.9629C244.204 37.1777 244.286 36.5918 244.45 36.2051C244.62 35.8184 244.928 35.5049 245.373 35.2646C245.824 35.0186 246.393 34.8955 247.078 34.8955C247.782 34.8955 248.47 35.001 249.144 35.2119L248.81 36.9346C248.417 36.8408 248.039 36.7939 247.676 36.7939C247.319 36.7939 247.061 36.8789 246.903 37.0488C246.75 37.2129 246.674 37.5322 246.674 38.0068V38.666H248.52V40.6084H246.674V48H244.204V40.6084H242.833V38.666ZM254.738 35.1152H257.34V42.0938C257.34 43.2012 257.372 43.9189 257.436 44.2471C257.548 44.7744 257.811 45.1992 258.227 45.5215C258.649 45.8379 259.224 45.9961 259.95 45.9961C260.688 45.9961 261.245 45.8467 261.62 45.5479C261.995 45.2432 262.221 44.8711 262.297 44.4316C262.373 43.9922 262.411 43.2627 262.411 42.2432V35.1152H265.013V41.8828C265.013 43.4297 264.942 44.5225 264.802 45.1611C264.661 45.7998 264.4 46.3389 264.019 46.7783C263.644 47.2178 263.141 47.5693 262.508 47.833C261.875 48.0908 261.049 48.2197 260.029 48.2197C258.799 48.2197 257.864 48.0791 257.226 47.7979C256.593 47.5107 256.092 47.1416 255.723 46.6904C255.353 46.2334 255.11 45.7559 254.993 45.2578C254.823 44.5195 254.738 43.4297 254.738 41.9883V35.1152ZM267.568 48V35.1152H270.038V41.9531L272.929 38.666H275.971L272.78 42.0762L276.199 48H273.536L271.189 43.8076L270.038 45.0117V48H267.568ZM279.95 48H277.48V38.666H279.774V39.9932C280.167 39.3662 280.518 38.9531 280.829 38.7539C281.145 38.5547 281.503 38.4551 281.901 38.4551C282.464 38.4551 283.006 38.6104 283.527 38.9209L282.762 41.0742C282.346 40.8047 281.96 40.6699 281.602 40.6699C281.256 40.6699 280.964 40.7666 280.723 40.96C280.483 41.1475 280.293 41.4902 280.152 41.9883C280.017 42.4863 279.95 43.5293 279.95 45.1172V48ZM286.355 41.5137L284.114 41.1094C284.366 40.207 284.799 39.5391 285.415 39.1055C286.03 38.6719 286.944 38.4551 288.157 38.4551C289.258 38.4551 290.079 38.5869 290.618 38.8506C291.157 39.1084 291.535 39.4395 291.751 39.8438C291.974 40.2422 292.085 40.9775 292.085 42.0498L292.059 44.9326C292.059 45.7529 292.097 46.3594 292.173 46.752C292.255 47.1387 292.405 47.5547 292.622 48H290.178C290.114 47.8359 290.035 47.5928 289.941 47.2705C289.9 47.124 289.871 47.0273 289.853 46.9805C289.431 47.3906 288.98 47.6982 288.499 47.9033C288.019 48.1084 287.506 48.2109 286.961 48.2109C286 48.2109 285.242 47.9502 284.685 47.4287C284.134 46.9072 283.859 46.248 283.859 45.4512C283.859 44.9238 283.985 44.4551 284.237 44.0449C284.489 43.6289 284.84 43.3125 285.291 43.0957C285.749 42.873 286.405 42.6797 287.26 42.5156C288.415 42.2988 289.214 42.0967 289.66 41.9092V41.6631C289.66 41.1885 289.542 40.8516 289.308 40.6523C289.074 40.4473 288.631 40.3447 287.981 40.3447C287.541 40.3447 287.199 40.4326 286.953 40.6084C286.707 40.7783 286.507 41.0801 286.355 41.5137ZM289.66 43.5176C289.343 43.623 288.842 43.749 288.157 43.8955C287.471 44.042 287.023 44.1855 286.812 44.3262C286.49 44.5547 286.329 44.8447 286.329 45.1963C286.329 45.542 286.458 45.8408 286.715 46.0928C286.973 46.3447 287.301 46.4707 287.7 46.4707C288.145 46.4707 288.57 46.3242 288.974 46.0312C289.273 45.8086 289.469 45.5361 289.563 45.2139C289.627 45.0029 289.66 44.6016 289.66 44.0098V43.5176ZM294.439 37.4004V35.1152H296.909V37.4004H294.439ZM294.439 48V38.666H296.909V48H294.439ZM307.849 48H305.379V43.2363C305.379 42.2285 305.326 41.5781 305.221 41.2852C305.115 40.9863 304.943 40.7549 304.702 40.5908C304.468 40.4268 304.184 40.3447 303.85 40.3447C303.422 40.3447 303.038 40.4619 302.698 40.6963C302.359 40.9307 302.124 41.2412 301.995 41.6279C301.872 42.0146 301.811 42.7295 301.811 43.7725V48H299.341V38.666H301.635V40.0371C302.449 38.9824 303.475 38.4551 304.711 38.4551C305.256 38.4551 305.754 38.5547 306.205 38.7539C306.656 38.9473 306.996 39.1963 307.225 39.501C307.459 39.8057 307.62 40.1514 307.708 40.5381C307.802 40.9248 307.849 41.4785 307.849 42.1992V48ZM315.678 45.0293L318.139 45.4424C317.822 46.3447 317.321 47.0332 316.636 47.5078C315.956 47.9766 315.104 48.2109 314.078 48.2109C312.455 48.2109 311.254 47.6807 310.475 46.6201C309.859 45.7705 309.552 44.6982 309.552 43.4033C309.552 41.8564 309.956 40.6465 310.765 39.7734C311.573 38.8945 312.596 38.4551 313.832 38.4551C315.221 38.4551 316.316 38.915 317.119 39.835C317.922 40.749 318.306 42.1523 318.271 44.0449H312.083C312.101 44.7773 312.3 45.3486 312.681 45.7588C313.062 46.1631 313.536 46.3652 314.104 46.3652C314.491 46.3652 314.816 46.2598 315.08 46.0488C315.344 45.8379 315.543 45.498 315.678 45.0293ZM315.818 42.5332C315.801 41.8184 315.616 41.2764 315.265 40.9072C314.913 40.5322 314.485 40.3447 313.981 40.3447C313.442 40.3447 312.997 40.541 312.646 40.9336C312.294 41.3262 312.121 41.8594 312.127 42.5332H315.818ZM321.169 44.6777L320.527 38.1387V35.1152H323.199V38.1387L322.566 44.6777H321.169ZM320.633 48V45.5303H323.102V48H320.633Z"
			fill="white" />
		<path
			d="M95.2344 74V62.5469H99.1797C100.07 62.5469 100.75 62.6016 101.219 62.7109C101.875 62.862 102.435 63.1354 102.898 63.5312C103.503 64.0417 103.953 64.6953 104.25 65.4922C104.552 66.2839 104.703 67.1901 104.703 68.2109C104.703 69.0807 104.602 69.8516 104.398 70.5234C104.195 71.1953 103.935 71.7526 103.617 72.1953C103.299 72.6328 102.951 72.9792 102.57 73.2344C102.195 73.4844 101.74 73.6745 101.203 73.8047C100.672 73.9349 100.06 74 99.3672 74H95.2344ZM96.75 72.6484H99.1953C99.9505 72.6484 100.542 72.5781 100.969 72.4375C101.401 72.2969 101.745 72.099 102 71.8438C102.359 71.4844 102.638 71.0026 102.836 70.3984C103.039 69.7891 103.141 69.0521 103.141 68.1875C103.141 66.9896 102.943 66.0703 102.547 65.4297C102.156 64.7839 101.68 64.3516 101.117 64.1328C100.711 63.9766 100.057 63.8984 99.1562 63.8984H96.75V72.6484ZM106.094 69.8516C106.094 68.3151 106.521 67.1771 107.375 66.4375C108.089 65.8229 108.958 65.5156 109.984 65.5156C111.125 65.5156 112.057 65.8906 112.781 66.6406C113.505 67.3854 113.867 68.4167 113.867 69.7344C113.867 70.8021 113.706 71.6432 113.383 72.2578C113.065 72.8672 112.599 73.3411 111.984 73.6797C111.375 74.0182 110.708 74.1875 109.984 74.1875C108.823 74.1875 107.883 73.8151 107.164 73.0703C106.451 72.3255 106.094 71.2526 106.094 69.8516ZM107.539 69.8516C107.539 70.9141 107.771 71.7109 108.234 72.2422C108.698 72.7682 109.281 73.0312 109.984 73.0312C110.682 73.0312 111.263 72.7656 111.727 72.2344C112.19 71.7031 112.422 70.8932 112.422 69.8047C112.422 68.7786 112.188 68.0026 111.719 67.4766C111.255 66.9453 110.677 66.6797 109.984 66.6797C109.281 66.6797 108.698 66.9427 108.234 67.4688C107.771 67.9948 107.539 68.7891 107.539 69.8516ZM115.523 74V65.7031H116.789V66.8828C117.398 65.9714 118.279 65.5156 119.43 65.5156C119.93 65.5156 120.388 65.6068 120.805 65.7891C121.227 65.9661 121.542 66.2005 121.75 66.4922C121.958 66.7839 122.104 67.1302 122.188 67.5312C122.24 67.7917 122.266 68.2474 122.266 68.8984V74H120.859V68.9531C120.859 68.3802 120.805 67.9531 120.695 67.6719C120.586 67.3854 120.391 67.1589 120.109 66.9922C119.833 66.8203 119.508 66.7344 119.133 66.7344C118.534 66.7344 118.016 66.9245 117.578 67.3047C117.146 67.6849 116.93 68.4062 116.93 69.4688V74H115.523ZM129.844 72.9766C129.323 73.4193 128.82 73.7318 128.336 73.9141C127.857 74.0964 127.341 74.1875 126.789 74.1875C125.878 74.1875 125.177 73.9661 124.688 73.5234C124.198 73.0755 123.953 72.5052 123.953 71.8125C123.953 71.4062 124.044 71.0365 124.227 70.7031C124.414 70.3646 124.656 70.0938 124.953 69.8906C125.255 69.6875 125.594 69.5339 125.969 69.4297C126.245 69.3568 126.661 69.2865 127.219 69.2188C128.354 69.0833 129.19 68.9219 129.727 68.7344C129.732 68.5417 129.734 68.4193 129.734 68.3672C129.734 67.7943 129.602 67.3906 129.336 67.1562C128.977 66.8385 128.443 66.6797 127.734 66.6797C127.073 66.6797 126.583 66.7969 126.266 67.0312C125.953 67.2604 125.721 67.6693 125.57 68.2578L124.195 68.0703C124.32 67.4818 124.526 67.0078 124.812 66.6484C125.099 66.2839 125.513 66.0052 126.055 65.8125C126.596 65.6146 127.224 65.5156 127.938 65.5156C128.646 65.5156 129.221 65.599 129.664 65.7656C130.107 65.9323 130.432 66.1432 130.641 66.3984C130.849 66.6484 130.995 66.9661 131.078 67.3516C131.125 67.5911 131.148 68.0234 131.148 68.6484V70.5234C131.148 71.8307 131.177 72.6589 131.234 73.0078C131.297 73.3516 131.417 73.6823 131.594 74H130.125C129.979 73.7083 129.885 73.3672 129.844 72.9766ZM129.727 69.8359C129.216 70.0443 128.451 70.2214 127.43 70.3672C126.852 70.4505 126.443 70.5443 126.203 70.6484C125.964 70.7526 125.779 70.9062 125.648 71.1094C125.518 71.3073 125.453 71.5286 125.453 71.7734C125.453 72.1484 125.594 72.4609 125.875 72.7109C126.161 72.9609 126.578 73.0859 127.125 73.0859C127.667 73.0859 128.148 72.9688 128.57 72.7344C128.992 72.4948 129.302 72.1693 129.5 71.7578C129.651 71.4401 129.727 70.9714 129.727 70.3516V69.8359ZM136.406 72.7422L136.609 73.9844C136.214 74.0677 135.859 74.1094 135.547 74.1094C135.036 74.1094 134.641 74.0286 134.359 73.8672C134.078 73.7057 133.88 73.4948 133.766 73.2344C133.651 72.9688 133.594 72.4141 133.594 71.5703V66.7969H132.562V65.7031H133.594V63.6484L134.992 62.8047V65.7031H136.406V66.7969H134.992V71.6484C134.992 72.0495 135.016 72.3073 135.062 72.4219C135.115 72.5365 135.195 72.6276 135.305 72.6953C135.419 72.763 135.581 72.7969 135.789 72.7969C135.945 72.7969 136.151 72.7786 136.406 72.7422ZM143.469 71.3281L144.922 71.5078C144.693 72.3568 144.268 73.0156 143.648 73.4844C143.029 73.9531 142.237 74.1875 141.273 74.1875C140.06 74.1875 139.096 73.8151 138.383 73.0703C137.674 72.3203 137.32 71.2708 137.32 69.9219C137.32 68.526 137.68 67.4427 138.398 66.6719C139.117 65.901 140.049 65.5156 141.195 65.5156C142.305 65.5156 143.211 65.8932 143.914 66.6484C144.617 67.4036 144.969 68.4661 144.969 69.8359C144.969 69.9193 144.966 70.0443 144.961 70.2109H138.773C138.826 71.1224 139.083 71.8203 139.547 72.3047C140.01 72.7891 140.589 73.0312 141.281 73.0312C141.797 73.0312 142.237 72.8958 142.602 72.625C142.966 72.3542 143.255 71.9219 143.469 71.3281ZM138.852 69.0547H143.484C143.422 68.3568 143.245 67.8333 142.953 67.4844C142.505 66.9427 141.924 66.6719 141.211 66.6719C140.565 66.6719 140.021 66.888 139.578 67.3203C139.141 67.7526 138.898 68.3307 138.852 69.0547ZM154.219 72.7422L154.422 73.9844C154.026 74.0677 153.672 74.1094 153.359 74.1094C152.849 74.1094 152.453 74.0286 152.172 73.8672C151.891 73.7057 151.693 73.4948 151.578 73.2344C151.464 72.9688 151.406 72.4141 151.406 71.5703V66.7969H150.375V65.7031H151.406V63.6484L152.805 62.8047V65.7031H154.219V66.7969H152.805V71.6484C152.805 72.0495 152.828 72.3073 152.875 72.4219C152.927 72.5365 153.008 72.6276 153.117 72.6953C153.232 72.763 153.393 72.7969 153.602 72.7969C153.758 72.7969 153.964 72.7786 154.219 72.7422ZM155.078 69.8516C155.078 68.3151 155.505 67.1771 156.359 66.4375C157.073 65.8229 157.943 65.5156 158.969 65.5156C160.109 65.5156 161.042 65.8906 161.766 66.6406C162.49 67.3854 162.852 68.4167 162.852 69.7344C162.852 70.8021 162.69 71.6432 162.367 72.2578C162.049 72.8672 161.583 73.3411 160.969 73.6797C160.359 74.0182 159.693 74.1875 158.969 74.1875C157.807 74.1875 156.867 73.8151 156.148 73.0703C155.435 72.3255 155.078 71.2526 155.078 69.8516ZM156.523 69.8516C156.523 70.9141 156.755 71.7109 157.219 72.2422C157.682 72.7682 158.266 73.0312 158.969 73.0312C159.667 73.0312 160.247 72.7656 160.711 72.2344C161.174 71.7031 161.406 70.8932 161.406 69.8047C161.406 68.7786 161.172 68.0026 160.703 67.4766C160.24 66.9453 159.661 66.6797 158.969 66.6797C158.266 66.6797 157.682 66.9427 157.219 67.4688C156.755 67.9948 156.523 68.7891 156.523 69.8516ZM172.031 72.7422L172.234 73.9844C171.839 74.0677 171.484 74.1094 171.172 74.1094C170.661 74.1094 170.266 74.0286 169.984 73.8672C169.703 73.7057 169.505 73.4948 169.391 73.2344C169.276 72.9688 169.219 72.4141 169.219 71.5703V66.7969H168.188V65.7031H169.219V63.6484L170.617 62.8047V65.7031H172.031V66.7969H170.617V71.6484C170.617 72.0495 170.641 72.3073 170.688 72.4219C170.74 72.5365 170.82 72.6276 170.93 72.6953C171.044 72.763 171.206 72.7969 171.414 72.7969C171.57 72.7969 171.776 72.7786 172.031 72.7422ZM173.414 74V62.5469H174.82V66.6562C175.477 65.8958 176.305 65.5156 177.305 65.5156C177.919 65.5156 178.453 65.638 178.906 65.8828C179.359 66.1224 179.682 66.4557 179.875 66.8828C180.073 67.3099 180.172 67.9297 180.172 68.7422V74H178.766V68.7422C178.766 68.0391 178.612 67.5286 178.305 67.2109C178.003 66.888 177.573 66.7266 177.016 66.7266C176.599 66.7266 176.206 66.8359 175.836 67.0547C175.471 67.2682 175.211 67.5599 175.055 67.9297C174.898 68.2995 174.82 68.8099 174.82 69.4609V74H173.414ZM188 71.3281L189.453 71.5078C189.224 72.3568 188.799 73.0156 188.18 73.4844C187.56 73.9531 186.768 74.1875 185.805 74.1875C184.591 74.1875 183.628 73.8151 182.914 73.0703C182.206 72.3203 181.852 71.2708 181.852 69.9219C181.852 68.526 182.211 67.4427 182.93 66.6719C183.648 65.901 184.581 65.5156 185.727 65.5156C186.836 65.5156 187.742 65.8932 188.445 66.6484C189.148 67.4036 189.5 68.4661 189.5 69.8359C189.5 69.9193 189.497 70.0443 189.492 70.2109H183.305C183.357 71.1224 183.615 71.8203 184.078 72.3047C184.542 72.7891 185.12 73.0312 185.812 73.0312C186.328 73.0312 186.768 72.8958 187.133 72.625C187.497 72.3542 187.786 71.9219 188 71.3281ZM183.383 69.0547H188.016C187.953 68.3568 187.776 67.8333 187.484 67.4844C187.036 66.9427 186.456 66.6719 185.742 66.6719C185.096 66.6719 184.552 66.888 184.109 67.3203C183.672 67.7526 183.43 68.3307 183.383 69.0547ZM198.75 72.7422L198.953 73.9844C198.557 74.0677 198.203 74.1094 197.891 74.1094C197.38 74.1094 196.984 74.0286 196.703 73.8672C196.422 73.7057 196.224 73.4948 196.109 73.2344C195.995 72.9688 195.938 72.4141 195.938 71.5703V66.7969H194.906V65.7031H195.938V63.6484L197.336 62.8047V65.7031H198.75V66.7969H197.336V71.6484C197.336 72.0495 197.359 72.3073 197.406 72.4219C197.458 72.5365 197.539 72.6276 197.648 72.6953C197.763 72.763 197.924 72.7969 198.133 72.7969C198.289 72.7969 198.495 72.7786 198.75 72.7422ZM200.117 74V65.7031H201.383V66.9609C201.706 66.3724 202.003 65.9844 202.273 65.7969C202.549 65.6094 202.852 65.5156 203.18 65.5156C203.654 65.5156 204.135 65.6667 204.625 65.9688L204.141 67.2734C203.797 67.0703 203.453 66.9688 203.109 66.9688C202.802 66.9688 202.526 67.0625 202.281 67.25C202.036 67.4323 201.862 67.6875 201.758 68.0156C201.602 68.5156 201.523 69.0625 201.523 69.6562V74H200.117ZM210.898 74V72.7812C210.253 73.7188 209.375 74.1875 208.266 74.1875C207.776 74.1875 207.318 74.0938 206.891 73.9062C206.469 73.7188 206.154 73.4844 205.945 73.2031C205.742 72.9167 205.599 72.5677 205.516 72.1562C205.458 71.8802 205.43 71.4427 205.43 70.8438V65.7031H206.836V70.3047C206.836 71.0391 206.865 71.5339 206.922 71.7891C207.01 72.1589 207.198 72.4505 207.484 72.6641C207.771 72.8724 208.125 72.9766 208.547 72.9766C208.969 72.9766 209.365 72.8698 209.734 72.6562C210.104 72.4375 210.365 72.1432 210.516 71.7734C210.672 71.3984 210.75 70.8568 210.75 70.1484V65.7031H212.156V74H210.898ZM213.805 71.5234L215.195 71.3047C215.273 71.862 215.49 72.2891 215.844 72.5859C216.203 72.8828 216.703 73.0312 217.344 73.0312C217.99 73.0312 218.469 72.901 218.781 72.6406C219.094 72.375 219.25 72.0651 219.25 71.7109C219.25 71.3932 219.112 71.1432 218.836 70.9609C218.643 70.8359 218.164 70.6771 217.398 70.4844C216.367 70.224 215.651 70 215.25 69.8125C214.854 69.6198 214.552 69.3568 214.344 69.0234C214.141 68.6849 214.039 68.3125 214.039 67.9062C214.039 67.5365 214.122 67.1953 214.289 66.8828C214.461 66.5651 214.693 66.3021 214.984 66.0938C215.203 65.9323 215.5 65.7969 215.875 65.6875C216.255 65.5729 216.661 65.5156 217.094 65.5156C217.745 65.5156 218.315 65.6094 218.805 65.7969C219.299 65.9844 219.664 66.2396 219.898 66.5625C220.133 66.8802 220.294 67.3073 220.383 67.8438L219.008 68.0312C218.945 67.6042 218.763 67.2708 218.461 67.0312C218.164 66.7917 217.742 66.6719 217.195 66.6719C216.549 66.6719 216.089 66.7786 215.812 66.9922C215.536 67.2057 215.398 67.4557 215.398 67.7422C215.398 67.9245 215.456 68.0885 215.57 68.2344C215.685 68.3854 215.865 68.5104 216.109 68.6094C216.25 68.6615 216.664 68.7812 217.352 68.9688C218.346 69.2344 219.039 69.4531 219.43 69.625C219.826 69.7917 220.135 70.0365 220.359 70.3594C220.583 70.6823 220.695 71.0833 220.695 71.5625C220.695 72.0312 220.557 72.474 220.281 72.8906C220.01 73.3021 219.617 73.6224 219.102 73.8516C218.586 74.0755 218.003 74.1875 217.352 74.1875C216.273 74.1875 215.451 73.9635 214.883 73.5156C214.32 73.0677 213.961 72.4036 213.805 71.5234ZM225.438 72.7422L225.641 73.9844C225.245 74.0677 224.891 74.1094 224.578 74.1094C224.068 74.1094 223.672 74.0286 223.391 73.8672C223.109 73.7057 222.911 73.4948 222.797 73.2344C222.682 72.9688 222.625 72.4141 222.625 71.5703V66.7969H221.594V65.7031H222.625V63.6484L224.023 62.8047V65.7031H225.438V66.7969H224.023V71.6484C224.023 72.0495 224.047 72.3073 224.094 72.4219C224.146 72.5365 224.227 72.6276 224.336 72.6953C224.451 72.763 224.612 72.7969 224.82 72.7969C224.977 72.7969 225.182 72.7786 225.438 72.7422ZM232.5 71.3281L233.953 71.5078C233.724 72.3568 233.299 73.0156 232.68 73.4844C232.06 73.9531 231.268 74.1875 230.305 74.1875C229.091 74.1875 228.128 73.8151 227.414 73.0703C226.706 72.3203 226.352 71.2708 226.352 69.9219C226.352 68.526 226.711 67.4427 227.43 66.6719C228.148 65.901 229.081 65.5156 230.227 65.5156C231.336 65.5156 232.242 65.8932 232.945 66.6484C233.648 67.4036 234 68.4661 234 69.8359C234 69.9193 233.997 70.0443 233.992 70.2109H227.805C227.857 71.1224 228.115 71.8203 228.578 72.3047C229.042 72.7891 229.62 73.0312 230.312 73.0312C230.828 73.0312 231.268 72.8958 231.633 72.625C231.997 72.3542 232.286 71.9219 232.5 71.3281ZM227.883 69.0547H232.516C232.453 68.3568 232.276 67.8333 231.984 67.4844C231.536 66.9427 230.956 66.6719 230.242 66.6719C229.596 66.6719 229.052 66.888 228.609 67.3203C228.172 67.7526 227.93 68.3307 227.883 69.0547ZM241.109 74V72.9531C240.583 73.776 239.81 74.1875 238.789 74.1875C238.128 74.1875 237.518 74.0052 236.961 73.6406C236.409 73.276 235.979 72.7682 235.672 72.1172C235.37 71.4609 235.219 70.7083 235.219 69.8594C235.219 69.0312 235.357 68.2812 235.633 67.6094C235.909 66.9323 236.323 66.4141 236.875 66.0547C237.427 65.6953 238.044 65.5156 238.727 65.5156C239.227 65.5156 239.672 65.6224 240.062 65.8359C240.453 66.0443 240.771 66.3177 241.016 66.6562V62.5469H242.414V74H241.109ZM236.664 69.8594C236.664 70.9219 236.888 71.7161 237.336 72.2422C237.784 72.7682 238.312 73.0312 238.922 73.0312C239.536 73.0312 240.057 72.7812 240.484 72.2812C240.917 71.776 241.133 71.0078 241.133 69.9766C241.133 68.8411 240.914 68.0078 240.477 67.4766C240.039 66.9453 239.5 66.6797 238.859 66.6797C238.234 66.6797 237.711 66.9349 237.289 67.4453C236.872 67.9557 236.664 68.7604 236.664 69.8594ZM249.422 74V66.7969H248.18V65.7031H249.422V64.8203C249.422 64.263 249.471 63.849 249.57 63.5781C249.706 63.2135 249.943 62.9193 250.281 62.6953C250.625 62.4661 251.104 62.3516 251.719 62.3516C252.115 62.3516 252.552 62.3984 253.031 62.4922L252.82 63.7188C252.529 63.6667 252.253 63.6406 251.992 63.6406C251.565 63.6406 251.263 63.7318 251.086 63.9141C250.909 64.0964 250.82 64.4375 250.82 64.9375V65.7031H252.438V66.7969H250.82V74H249.422ZM258.977 74V72.7812C258.331 73.7188 257.453 74.1875 256.344 74.1875C255.854 74.1875 255.396 74.0938 254.969 73.9062C254.547 73.7188 254.232 73.4844 254.023 73.2031C253.82 72.9167 253.677 72.5677 253.594 72.1562C253.536 71.8802 253.508 71.4427 253.508 70.8438V65.7031H254.914V70.3047C254.914 71.0391 254.943 71.5339 255 71.7891C255.089 72.1589 255.276 72.4505 255.562 72.6641C255.849 72.8724 256.203 72.9766 256.625 72.9766C257.047 72.9766 257.443 72.8698 257.812 72.6562C258.182 72.4375 258.443 72.1432 258.594 71.7734C258.75 71.3984 258.828 70.8568 258.828 70.1484V65.7031H260.234V74H258.977ZM262.445 74V65.7031H263.711V66.8828C264.32 65.9714 265.201 65.5156 266.352 65.5156C266.852 65.5156 267.31 65.6068 267.727 65.7891C268.148 65.9661 268.464 66.2005 268.672 66.4922C268.88 66.7839 269.026 67.1302 269.109 67.5312C269.161 67.7917 269.188 68.2474 269.188 68.8984V74H267.781V68.9531C267.781 68.3802 267.727 67.9531 267.617 67.6719C267.508 67.3854 267.312 67.1589 267.031 66.9922C266.755 66.8203 266.43 66.7344 266.055 66.7344C265.456 66.7344 264.938 66.9245 264.5 67.3047C264.068 67.6849 263.852 68.4062 263.852 69.4688V74H262.445ZM276.734 74V72.9531C276.208 73.776 275.435 74.1875 274.414 74.1875C273.753 74.1875 273.143 74.0052 272.586 73.6406C272.034 73.276 271.604 72.7682 271.297 72.1172C270.995 71.4609 270.844 70.7083 270.844 69.8594C270.844 69.0312 270.982 68.2812 271.258 67.6094C271.534 66.9323 271.948 66.4141 272.5 66.0547C273.052 65.6953 273.669 65.5156 274.352 65.5156C274.852 65.5156 275.297 65.6224 275.688 65.8359C276.078 66.0443 276.396 66.3177 276.641 66.6562V62.5469H278.039V74H276.734ZM272.289 69.8594C272.289 70.9219 272.513 71.7161 272.961 72.2422C273.409 72.7682 273.938 73.0312 274.547 73.0312C275.161 73.0312 275.682 72.7812 276.109 72.2812C276.542 71.776 276.758 71.0078 276.758 69.9766C276.758 68.8411 276.539 68.0078 276.102 67.4766C275.664 66.9453 275.125 66.6797 274.484 66.6797C273.859 66.6797 273.336 66.9349 272.914 67.4453C272.497 67.9557 272.289 68.7604 272.289 69.8594ZM279.695 71.5234L281.086 71.3047C281.164 71.862 281.38 72.2891 281.734 72.5859C282.094 72.8828 282.594 73.0312 283.234 73.0312C283.88 73.0312 284.359 72.901 284.672 72.6406C284.984 72.375 285.141 72.0651 285.141 71.7109C285.141 71.3932 285.003 71.1432 284.727 70.9609C284.534 70.8359 284.055 70.6771 283.289 70.4844C282.258 70.224 281.542 70 281.141 69.8125C280.745 69.6198 280.443 69.3568 280.234 69.0234C280.031 68.6849 279.93 68.3125 279.93 67.9062C279.93 67.5365 280.013 67.1953 280.18 66.8828C280.352 66.5651 280.583 66.3021 280.875 66.0938C281.094 65.9323 281.391 65.7969 281.766 65.6875C282.146 65.5729 282.552 65.5156 282.984 65.5156C283.635 65.5156 284.206 65.6094 284.695 65.7969C285.19 65.9844 285.555 66.2396 285.789 66.5625C286.023 66.8802 286.185 67.3073 286.273 67.8438L284.898 68.0312C284.836 67.6042 284.654 67.2708 284.352 67.0312C284.055 66.7917 283.633 66.6719 283.086 66.6719C282.44 66.6719 281.979 66.7786 281.703 66.9922C281.427 67.2057 281.289 67.4557 281.289 67.7422C281.289 67.9245 281.346 68.0885 281.461 68.2344C281.576 68.3854 281.755 68.5104 282 68.6094C282.141 68.6615 282.555 68.7812 283.242 68.9688C284.237 69.2344 284.93 69.4531 285.32 69.625C285.716 69.7917 286.026 70.0365 286.25 70.3594C286.474 70.6823 286.586 71.0833 286.586 71.5625C286.586 72.0312 286.448 72.474 286.172 72.8906C285.901 73.3021 285.508 73.6224 284.992 73.8516C284.477 74.0755 283.893 74.1875 283.242 74.1875C282.164 74.1875 281.341 73.9635 280.773 73.5156C280.211 73.0677 279.852 72.4036 279.695 71.5234Z"
			fill="white" />
		<path
			d="M295.333 70.6238H302.78L299.527 73.8772C299.267 74.1372 299.267 74.5638 299.527 74.8238C299.787 75.0838 300.207 75.0838 300.467 74.8238L304.86 70.4305C305.12 70.1705 305.12 69.7505 304.86 69.4905L300.473 65.0905C300.213 64.8305 299.793 64.8305 299.533 65.0905C299.273 65.3505 299.273 65.7705 299.533 66.0305L302.78 69.2905H295.333C294.967 69.2905 294.667 69.5905 294.667 69.9572C294.667 70.3238 294.967 70.6238 295.333 70.6238Z"
			fill="white" />
		<g clip-path="url(#clip0_172_14199)">
			<rect x="26" y="27" width="56" height="56" rx="28" fill="#FFD500" />
			<rect x="15" y="13" width="75" height="42" fill="#005BBB" />
		</g>
		<rect x="26" y="27" width="56" height="56" rx="28" stroke="white" stroke-width="3" />
		<rect x="357" y="2.95703" width="24" height="24" rx="12" fill="white" />
		<path fill-rule="evenodd" clip-rule="evenodd"
			d="M364.446 10.4035C364.902 9.9482 365.638 9.9482 366.094 10.4035L369 13.3103L371.906 10.4101C372.362 9.95522 373.098 9.95498 373.554 10.4101C374.002 10.8587 374.002 11.602 373.554 12.0506L370.647 14.957L373.554 17.8635C374.009 18.3187 374.009 19.0553 373.554 19.5106C373.098 19.9658 372.362 19.9658 371.906 19.5106L369 16.6041L366.094 19.5106C365.638 19.9658 364.902 19.9658 364.446 19.5106C363.991 19.0553 363.991 18.3187 364.446 17.8635L367.353 14.957L364.446 12.0506C363.991 11.5953 363.991 10.8587 364.446 10.4035Z"
			fill="#313440" />
	</g>
	<defs>
		<filter id="filter0_d_172_14199" x="0" y="0.957031" width="393" height="118" filterUnits="userSpaceOnUse"
			color-interpolation-filters="sRGB">
			<feFlood flood-opacity="0" result="BackgroundImageFix" />
			<feColorMatrix in="SourceAlpha" type="matrix" values="0 0 0 0 0 0 0 0 0 0 0 0 0 0 0 0 0 0 127 0"
				result="hardAlpha" />
			<feOffset dy="10" />
			<feGaussianBlur stdDeviation="6" />
			<feComposite in2="hardAlpha" operator="out" />
			<feColorMatrix type="matrix" values="0 0 0 0 0.119844 0 0 0 0 0.147144 0 0 0 0 0.1625 0 0 0 0.16 0" />
			<feBlend mode="normal" in2="BackgroundImageFix" result="effect1_dropShadow_172_14199" />
			<feBlend mode="normal" in="SourceGraphic" in2="effect1_dropShadow_172_14199" result="shape" />
		</filter>
		<clipPath id="clip0_172_14199">
			<rect x="26" y="27" width="56" height="56" rx="28" fill="white" />
		</clipPath>
	</defs>
</svg>